STARTFONT 2.1
FONT -FontForge-Fredoka One-Book-R-Normal--36-360-72-72-P-208-ISO10646-1
SIZE 36 72 72
FONTBOUNDINGBOX 48 44 -5 -9
COMMENT "Generated by fontforge, http://fontforge.sourceforge.net"
COMMENT "Copyright (c) 2011 Milena B Brandao (milenabbrandao@gmail.com), with Reserved Font Name "Fredoka""
STARTPROPERTIES 39
FOUNDRY "FontForge"
FAMILY_NAME "Fredoka One"
WEIGHT_NAME "Book"
SLANT "R"
SETWIDTH_NAME "Normal"
ADD_STYLE_NAME ""
PIXEL_SIZE 36
POINT_SIZE 360
RESOLUTION_X 72
RESOLUTION_Y 72
SPACING "P"
AVERAGE_WIDTH 208
CHARSET_REGISTRY "ISO10646"
CHARSET_ENCODING "1"
FONTNAME_REGISTRY ""
CHARSET_COLLECTIONS "ISO10646-1"
FONT_NAME "FredokaOne-Regular"
FACE_NAME "Fredoka One"
COPYRIGHT "Copyright (c) 2011 Milena B Brandao (milenabbrandao@gmail.com), with Reserved Font Name "Fredoka""
FONT_VERSION "1.001"
FONT_ASCENT 29
FONT_DESCENT 7
UNDERLINE_POSITION -4
UNDERLINE_THICKNESS 2
X_HEIGHT 18
CAP_HEIGHT 26
RAW_ASCENT 800
RAW_DESCENT 200
NORM_SPACE 9
RELATIVE_WEIGHT 40
RELATIVE_SETWIDTH 50
SUPERSCRIPT_X 0
SUPERSCRIPT_Y 17
SUPERSCRIPT_SIZE 23
SUBSCRIPT_X 0
SUBSCRIPT_Y 5
SUBSCRIPT_SIZE 23
AVG_LOWERCASE_WIDTH 206
AVG_UPPERCASE_WIDTH 248
ENDPROPERTIES
CHARS 235
STARTCHAR space
ENCODING 32
SWIDTH 253 0
DWIDTH 9 0
BBX 1 1 0 0
BITMAP
00
ENDCHAR
STARTCHAR exclam
ENCODING 33
SWIDTH 267 0
DWIDTH 10 0
BBX 7 27 1 0
BITMAP
10
7E
7E
7E
7E
7E
7E
7E
7E
7E
7E
7E
7E
7E
7E
7E
7E
10
00
00
3C
7E
FE
FE
FE
7E
7C
ENDCHAR
STARTCHAR quotedbl
ENCODING 34
SWIDTH 429 0
DWIDTH 15 0
BBX 14 12 1 14
BITMAP
F8F8
F8F8
FCF8
FCFC
FCFC
F8F8
F8F8
F8F8
78F8
7878
7070
3030
ENDCHAR
STARTCHAR numbersign
ENCODING 35
SWIDTH 749 0
DWIDTH 27 0
BBX 25 26 1 0
BITMAP
01F03C00
01F07E00
01F07C00
01F07C00
03F07C00
03E07C00
03E07C00
7FFFFF80
7FFFFF80
7FFFFF80
7FFFFF80
07C0F800
07C0F800
07C1F800
07C1F000
7FFFFE00
FFFFFF00
FFFFFF00
FFFFFF00
FFFFFE00
0F83E000
0F83E000
1F83E000
1F03E000
1F03E000
0E03C000
ENDCHAR
STARTCHAR dollar
ENCODING 36
SWIDTH 475 0
DWIDTH 17 0
BBX 15 31 1 -3
BITMAP
0380
07C0
07C0
07C0
07C0
1FF0
3FF8
7FFC
7FFC
FEF8
F830
F800
FE00
7FE0
7FF8
3FFC
0FFE
01FE
003E
703E
F83E
FEFE
FFFC
7FFC
3FF8
0FE0
07C0
07C0
07C0
03C0
0380
ENDCHAR
STARTCHAR percent
ENCODING 37
SWIDTH 838 0
DWIDTH 30 0
BBX 28 29 1 -1
BITMAP
00000C00
02001E00
1FC01C00
3FE03C00
7FF03800
7FF07800
78F07000
F078F000
F078E000
78F9E000
7DF1C000
7FF3C000
3FF78000
3FE78000
0F8F0000
000E3F80
001E7FC0
001CFFE0
003CFFE0
0038F1F0
0078F0F0
0070F0F0
00F0F0F0
00E0F9F0
01E0FFE0
01C07FE0
03C07FC0
03801F80
03800000
ENDCHAR
STARTCHAR ampersand
ENCODING 38
SWIDTH 748 0
DWIDTH 27 0
BBX 25 28 1 0
BITMAP
00700000
03FE0000
0FFF8000
1FFF8000
1FFFC000
1F8FC000
1F0FC000
1F0FC000
1F1FC000
1FFF8000
1FFF8000
1FFF0000
0FFE0000
0FF80000
1FF00000
3FF03E00
7FF83F00
7FFC7E00
FFFE7E00
FCFFFE00
FC7FFC00
FC3FFC00
FE1FFF00
FFFFFF80
7FFFFF80
7FFFFF80
3FFFFF80
0FFC1F00
ENDCHAR
STARTCHAR quotesingle
ENCODING 39
SWIDTH 208 0
DWIDTH 7 0
BBX 6 12 1 14
BITMAP
F8
F8
FC
FC
FC
F8
F8
F8
78
78
70
30
ENDCHAR
STARTCHAR parenleft
ENCODING 40
SWIDTH 384 0
DWIDTH 14 0
BBX 12 36 1 -8
BITMAP
00F0
03F0
07F0
0FF0
1FE0
1F80
3F00
3E00
3E00
7E00
7C00
7C00
7C00
FC00
FC00
FC00
FC00
F800
F800
F800
FC00
FC00
FC00
FC00
7C00
7C00
7C00
7E00
3E00
3F00
1F00
1FC0
0FF0
07F0
03F0
01F0
ENDCHAR
STARTCHAR parenright
ENCODING 41
SWIDTH 384 0
DWIDTH 14 0
BBX 12 36 1 -8
BITMAP
F000
FC00
FE00
FF00
FF80
1F80
0FC0
07C0
07C0
07E0
03E0
03E0
03E0
03E0
03F0
03F0
03F0
03F0
03F0
03F0
03F0
03F0
03E0
03E0
03E0
03E0
07E0
07C0
07C0
0FC0
0F80
3F80
FF00
FE00
FC00
F800
ENDCHAR
STARTCHAR asterisk
ENCODING 42
SWIDTH 503 0
DWIDTH 18 0
BBX 17 17 1 10
BITMAP
03C000
07E000
07E000
07E000
77EE00
FFFF00
FFFF00
FFFF80
FFFF00
7FFE00
1FF800
1FFC00
3FFC00
7FFE00
3F7C00
1E7C00
0C3000
ENDCHAR
STARTCHAR plus
ENCODING 43
SWIDTH 527 0
DWIDTH 19 0
BBX 17 17 1 1
BITMAP
03E000
03E000
03E000
03E000
03E000
7FFE00
FFFF80
FFFF80
FFFF80
FFFF80
7FFF00
03E000
03E000
03E000
03E000
03E000
01C000
ENDCHAR
STARTCHAR comma
ENCODING 44
SWIDTH 238 0
DWIDTH 9 0
BBX 7 13 1 -6
BITMAP
38
FC
FE
FE
FE
FE
7C
3C
3C
78
F8
F0
C0
ENDCHAR
STARTCHAR hyphen
ENCODING 45
SWIDTH 433 0
DWIDTH 16 0
BBX 14 6 1 5
BITMAP
7FF0
FFF8
FFFC
FFFC
FFFC
7FF8
ENDCHAR
STARTCHAR period
ENCODING 46
SWIDTH 237 0
DWIDTH 9 0
BBX 7 7 1 0
BITMAP
78
FC
FE
FE
FE
FC
7C
ENDCHAR
STARTCHAR slash
ENCODING 47
SWIDTH 526 0
DWIDTH 19 0
BBX 17 30 1 -2
BITMAP
000F00
000F80
001F80
001F80
003F80
003F00
007F00
007E00
00FE00
00FC00
01FC00
01F800
03F800
03F000
07F000
07F000
0FE000
0FE000
1FC000
1FC000
3F8000
3F8000
3F0000
7F0000
7E0000
FE0000
FC0000
FC0000
F80000
380000
ENDCHAR
STARTCHAR zero
ENCODING 48
SWIDTH 608 0
DWIDTH 22 0
BBX 20 28 1 -1
BITMAP
01F000
07FE00
0FFF00
1FFF80
3FFFC0
3FFFC0
7FFFE0
7F0FE0
FE07E0
FE07F0
FE07F0
FC07F0
FC03F0
FC03F0
FC03F0
FC07F0
FC07F0
FE07F0
FE07F0
7E07E0
7F0FE0
7FFFE0
3FFFC0
3FFFC0
1FFF80
0FFF00
03FC00
006000
ENDCHAR
STARTCHAR one
ENCODING 49
SWIDTH 407 0
DWIDTH 15 0
BBX 12 26 1 0
BITMAP
01F0
03F0
07F0
1FF0
3FF0
7FF0
FFF0
FFF0
FFF0
FFF0
7BF0
23F0
03F0
03F0
03F0
03F0
03F0
03F0
03F0
03F0
03F0
03F0
03F0
03F0
03F0
01E0
ENDCHAR
STARTCHAR two
ENCODING 50
SWIDTH 609 0
DWIDTH 22 0
BBX 20 27 1 0
BITMAP
01F000
07FE00
1FFF00
3FFF80
3FFFC0
7FFFC0
FFFFE0
FE0FE0
FE07E0
FC07E0
FC07E0
FC0FE0
7C0FE0
001FE0
007FC0
00FFC0
03FF80
0FFF00
1FFC00
3FF800
7FE000
FFFFF0
FFFFF0
FFFFF0
FFFFF0
FFFFF0
7FFFF0
ENDCHAR
STARTCHAR three
ENCODING 51
SWIDTH 608 0
DWIDTH 22 0
BBX 20 27 1 0
BITMAP
01F000
07FE00
1FFF80
3FFFC0
3FFFC0
7FFFE0
7FDFE0
7E07E0
3E07E0
1C0FE0
00FFE0
01FFC0
01FF80
01FF80
01FFC0
00FFE0
000FF0
7807F0
FC03F0
FC07F0
FE07F0
FFFFF0
7FFFE0
7FFFC0
3FFFC0
1FFF00
07FE00
ENDCHAR
STARTCHAR four
ENCODING 52
SWIDTH 592 0
DWIDTH 21 0
BBX 19 27 1 0
BITMAP
0C0000
1F07C0
1F8FE0
3F8FE0
3F8FE0
3F8FE0
3F0FE0
7F0FE0
7F0FE0
7F0FE0
7E0FE0
FE0FE0
FE0FE0
FFFFE0
FFFFE0
FFFFE0
FFFFE0
FFFFE0
FFFFE0
000FE0
000FE0
000FE0
000FE0
000FE0
000FE0
0007E0
0007C0
ENDCHAR
STARTCHAR five
ENCODING 53
SWIDTH 530 0
DWIDTH 19 0
BBX 17 27 1 -1
BITMAP
3FFF00
3FFF80
7FFF80
7FFF80
7FFF00
7FFF00
7E0000
7E0000
7E0000
FFF000
FFFC00
FFFE00
FFFF00
FFFF00
FFFF80
3C3F80
001F80
001F80
301F80
7C3F80
FFFF80
FFFF00
FFFF00
FFFE00
3FFC00
1FF000
018000
ENDCHAR
STARTCHAR six
ENCODING 54
SWIDTH 560 0
DWIDTH 20 0
BBX 18 26 1 0
BITMAP
007F80
01FF80
03FFC0
0FFFC0
0FFF80
1FFF80
3FE000
3F8000
7F0000
7F0000
7EF000
FFFC00
FFFF00
FFFF80
FFFF80
FFFFC0
FE1FC0
FE0FC0
FC0FC0
FE0FC0
7FBFC0
7FFFC0
3FFF80
3FFF00
1FFE00
07FC00
ENDCHAR
STARTCHAR seven
ENCODING 55
SWIDTH 561 0
DWIDTH 20 0
BBX 19 26 1 0
BITMAP
FFFFC0
FFFFE0
FFFFE0
FFFFE0
FFFFC0
FFFFC0
001FC0
003F80
003F80
007F00
00FF00
00FE00
01FC00
03FC00
03F800
07F800
07F000
0FE000
0FE000
0FE000
0FC000
1FC000
1FC000
1FC000
1FC000
0F8000
ENDCHAR
STARTCHAR eight
ENCODING 56
SWIDTH 582 0
DWIDTH 21 0
BBX 19 28 1 -1
BITMAP
01F000
07FC00
1FFF00
3FFF80
3FFF80
7FFFC0
7F1FC0
7E0FC0
7E0FC0
7F1FC0
7FFFC0
3FFF80
3FFF00
3FFF80
7FFFC0
7FFFC0
FF1FE0
FE0FE0
FC07E0
FC07E0
FE0FE0
FFFFE0
7FFFC0
7FFFC0
3FFF80
1FFF00
07FC00
004000
ENDCHAR
STARTCHAR nine
ENCODING 57
SWIDTH 560 0
DWIDTH 20 0
BBX 18 27 1 0
BITMAP
03F000
0FFC00
1FFE00
3FFF00
7FFF80
FFFF80
FE1FC0
FC0FC0
FC0FC0
FC1FC0
FE3FC0
7FFFC0
7FFFC0
3FFFC0
1FFFC0
07FFC0
001FC0
003F80
007F80
00FF00
03FF00
7FFE00
7FFC00
7FF800
7FF000
7FE000
7F0000
ENDCHAR
STARTCHAR colon
ENCODING 58
SWIDTH 238 0
DWIDTH 9 0
BBX 7 18 1 0
BITMAP
7C
FC
FE
FE
FE
FC
10
00
00
00
00
38
FC
FE
FE
FE
FC
7C
ENDCHAR
STARTCHAR semicolon
ENCODING 59
SWIDTH 237 0
DWIDTH 9 0
BBX 7 24 1 -6
BITMAP
7C
FC
FE
FE
FE
FC
10
00
00
00
00
78
FC
FE
FE
FE
FE
7C
3C
3C
78
F8
F0
C0
ENDCHAR
STARTCHAR less
ENCODING 60
SWIDTH 627 0
DWIDTH 23 0
BBX 21 25 1 0
BITMAP
000060
0001F0
0003F8
000FF8
003FF8
007FF0
01FFC0
07FF80
0FFE00
3FF800
FFF000
FFC000
FF0000
FFC000
FFE000
3FF800
1FFE00
07FF00
01FFC0
00FFF0
003FF8
000FF8
0007F8
0001F0
000060
ENDCHAR
STARTCHAR equal
ENCODING 61
SWIDTH 478 0
DWIDTH 17 0
BBX 15 13 1 2
BITMAP
3FFC
FFFE
FFFE
FFFE
FFFE
7FFE
0000
0000
7FFC
FFFE
FFFE
FFFE
FFFE
ENDCHAR
STARTCHAR greater
ENCODING 62
SWIDTH 627 0
DWIDTH 23 0
BBX 22 25 0 0
BITMAP
100000
3C0000
7F0000
7F8000
7FE000
3FF800
1FFE00
07FF00
01FFC0
00FFF0
003FF8
000FFC
0007FC
000FFC
003FF8
007FF0
01FFC0
07FF80
1FFE00
3FF800
7FF000
FFC000
7F0000
7C0000
380000
ENDCHAR
STARTCHAR question
ENCODING 63
SWIDTH 512 0
DWIDTH 18 0
BBX 17 27 1 0
BITMAP
07E000
1FF800
3FFC00
7FFE00
FFFF00
FFFF00
FC3F00
F81F80
781F80
003F00
007F00
01FF00
03FE00
07FC00
07F800
07E000
07E000
008000
000000
000000
01C000
07E000
07E000
07E000
07E000
07E000
03C000
ENDCHAR
STARTCHAR at
ENCODING 64
SWIDTH 908 0
DWIDTH 33 0
BBX 31 29 1 -5
BITMAP
003FF000
00FFFE00
03FFFF80
07FFFFC0
0FFCFFE0
1FC007F0
3F0001F8
7E0FBCF8
7C3FFC7C
787FFC7C
F8FFFC3C
F8FDF83E
F8F0F83E
F1F0F83E
F1F0F83E
F1F9F83E
F8FFF83E
F8FFF83C
F87FF87C
783FF07C
7C08F1F8
7E00FFF8
3F00FFF0
3FC07FE0
1FFE3F80
0FFF0000
03FF0000
01FF0000
001E0000
ENDCHAR
STARTCHAR A
ENCODING 65
SWIDTH 765 0
DWIDTH 28 0
BBX 26 26 1 0
BITMAP
001E0000
003F0000
007F0000
007F8000
00FF8000
00FFC000
01FFC000
01FFE000
03FFE000
03FFF000
07FFF000
07F7F800
07F3F800
0FE3F800
0FE1FC00
1FFFFC00
1FFFFE00
3FFFFE00
3FFFFF00
7FFFFF00
7F003F80
FE003F80
FE001FC0
FC001FC0
FC000FC0
78000F00
ENDCHAR
STARTCHAR B
ENCODING 66
SWIDTH 646 0
DWIDTH 23 0
BBX 21 26 1 0
BITMAP
7FFF00
FFFFC0
FFFFE0
FFFFF0
FFFFF0
FFFFF0
FE03F8
FE03F8
FE03F8
FE07F0
FE3FF0
FE3FE0
FE3FF0
FE3FF0
FE1FF8
FE01F8
FE01F8
FE01F8
FE01F8
FE07F8
FFFFF8
FFFFF0
FFFFF0
FFFFE0
7FFFC0
7FFF00
ENDCHAR
STARTCHAR C
ENCODING 67
SWIDTH 679 0
DWIDTH 24 0
BBX 23 27 1 0
BITMAP
000600
00FFE0
03FFF8
07FFFC
0FFFFE
1FFFFC
3FFFFC
7FC078
7F8030
FF0000
FE0000
FE0000
FC0000
FC0000
FC0000
FC0000
FE0000
FE0000
7F0000
7F8038
3FE0F8
3FFFFC
1FFFFE
0FFFFC
07FFFC
01FFF0
007FC0
ENDCHAR
STARTCHAR D
ENCODING 68
SWIDTH 704 0
DWIDTH 25 0
BBX 23 26 1 0
BITMAP
7FFE00
FFFF80
FFFFC0
FFFFF0
FFFFF8
FFFFF8
FE07FC
FE03FC
FE00FE
FE00FE
FE007E
FE007E
FE007E
FE007E
FE007E
FE007E
FE00FE
FE01FE
FE03FC
FE1FFC
FFFFF8
FFFFF0
FFFFE0
FFFFC0
7FFF00
7FFC00
ENDCHAR
STARTCHAR E
ENCODING 69
SWIDTH 638 0
DWIDTH 23 0
BBX 21 26 1 0
BITMAP
7FFFF8
7FFFF8
FFFFF8
FFFFF8
FFFFF8
FFFFF0
FE0000
FE0000
FE0000
FE0000
FFFF80
FFFF80
FFFF80
FFFF80
FFFF80
FFFF00
FE0000
FE0000
FE0000
FE0000
FFFFF8
FFFFF8
FFFFF8
FFFFF8
7FFFF8
7FFFF0
ENDCHAR
STARTCHAR F
ENCODING 70
SWIDTH 637 0
DWIDTH 23 0
BBX 21 26 1 0
BITMAP
7FFFF8
7FFFF8
FFFFF8
FFFFF8
FFFFF8
FFFFF0
FE0000
FE0000
FE0000
FE0000
FFFF80
FFFF80
FFFF80
FFFF80
FFFF80
FFFF00
FE0000
FE0000
FE0000
FE0000
FE0000
FE0000
FE0000
FE0000
7E0000
7C0000
ENDCHAR
STARTCHAR G
ENCODING 71
SWIDTH 714 0
DWIDTH 26 0
BBX 23 27 1 0
BITMAP
003F00
01FFE0
03FFF8
0FFFFC
1FFFFC
1FFFFC
3FFFFC
7FC078
7F0010
FE0000
FE0000
FE0FFC
FC0FFE
FC0FFE
FC0FFE
FE0FFE
FE007E
FE007E
7F007E
7F807E
3FE0FE
3FFFFE
1FFFFE
0FFFFE
07FFFC
03FFF8
00FFE0
ENDCHAR
STARTCHAR H
ENCODING 72
SWIDTH 699 0
DWIDTH 25 0
BBX 23 26 1 0
BITMAP
7C007C
FE00FE
FE00FE
FE00FE
FE00FE
FE00FE
FE00FE
FE00FE
FE00FE
FE00FE
FFFFFE
FFFFFE
FFFFFE
FFFFFE
FFFFFE
FE00FE
FE00FE
FE00FE
FE00FE
FE00FE
FE00FE
FE00FE
FE00FE
FE00FE
7E007E
7C007C
ENDCHAR
STARTCHAR I
ENCODING 73
SWIDTH 257 0
DWIDTH 9 0
BBX 7 26 1 0
BITMAP
7C
FE
FE
FE
FE
FE
FE
FE
FE
FE
FE
FE
FE
FE
FE
FE
FE
FE
FE
FE
FE
FE
FE
FE
7E
7C
ENDCHAR
STARTCHAR J
ENCODING 74
SWIDTH 549 0
DWIDTH 20 0
BBX 17 26 1 0
BITMAP
001F80
001F80
001F80
001F80
001F80
001F80
001F80
001F80
001F80
001F80
001F80
001F80
001F80
001F80
001F80
001F80
001F80
001F80
783F80
FC7F80
FFFF80
FFFF00
FFFE00
7FFE00
3FF800
0FF000
ENDCHAR
STARTCHAR K
ENCODING 75
SWIDTH 639 0
DWIDTH 23 0
BBX 21 27 1 0
BITMAP
0000C0
7C01E0
FE03F0
FE07F8
FE0FF8
FE1FF0
FE3FE0
FE3FC0
FE7F80
FEFF00
FFFE00
FFFC00
FFF800
FFF000
FFF800
FFFC00
FFFE00
FFFF00
FEFF80
FE7FC0
FE3FC0
FE1FE0
FE0FF0
FE07F8
FE03F8
7E03F0
7C01E0
ENDCHAR
STARTCHAR L
ENCODING 76
SWIDTH 587 0
DWIDTH 21 0
BBX 19 26 1 0
BITMAP
7C0000
FE0000
FE0000
FE0000
FE0000
FE0000
FE0000
FE0000
FE0000
FE0000
FE0000
FE0000
FE0000
FE0000
FE0000
FE0000
FE0000
FE0000
FE0000
FE0000
FE0000
FFFFE0
FFFFE0
FFFFE0
7FFFE0
7FFFE0
ENDCHAR
STARTCHAR M
ENCODING 77
SWIDTH 870 0
DWIDTH 31 0
BBX 29 26 1 0
BITMAP
7C0001F0
FE0003F8
FF0007F8
FF8007F8
FF800FF8
FFC01FF8
FFE03FF8
FFF07FF8
FFF07FF8
FFF8FFF8
FFFDFFF8
FFFFFDF8
FEFFF9F8
FE7FF1F8
FE3FF1F8
FE3FE1F8
FE1FC1F8
FE0FC1F8
FE0781F8
FE0001F8
FE0001F8
FE0001F8
FE0001F8
FE0001F8
7E0001F8
7C0001F0
ENDCHAR
STARTCHAR N
ENCODING 78
SWIDTH 720 0
DWIDTH 26 0
BBX 23 26 1 0
BITMAP
7C003E
7E007E
FF007E
FF807E
FF807E
FFC07E
FFE07E
FFF07E
FFF07E
FFF87E
FFFC7E
FFFE7E
FEFE7E
FE7F7E
FE7FFE
FE3FFE
FE1FFE
FE0FFE
FE0FFE
FE07FE
FE03FE
FE01FE
FE01FE
FE00FE
7E007E
7C003E
ENDCHAR
STARTCHAR O
ENCODING 79
SWIDTH 775 0
DWIDTH 28 0
BBX 26 27 1 0
BITMAP
001E0000
00FFC000
03FFF000
0FFFF800
1FFFFC00
1FFFFE00
3FFFFF00
7FC0FF80
7F007F80
7F003F80
FE001FC0
FE001FC0
FC000FC0
FC000FC0
FC000FC0
FC001FC0
FE001FC0
FE001FC0
7F003F80
7F807F80
7FC0FF00
3FFFFF00
1FFFFE00
0FFFFC00
07FFF800
03FFF000
00FFC000
ENDCHAR
STARTCHAR P
ENCODING 80
SWIDTH 632 0
DWIDTH 23 0
BBX 21 26 1 0
BITMAP
7FFE00
FFFF80
FFFFC0
FFFFE0
FFFFF0
FFFFF0
FE07F8
FE03F8
FE03F8
FE03F8
FE03F8
FE03F8
FFFFF0
FFFFF0
FFFFE0
FFFFE0
FFFF80
FFFF00
FFF800
FE0000
FE0000
FE0000
FE0000
FE0000
7E0000
7C0000
ENDCHAR
STARTCHAR Q
ENCODING 81
SWIDTH 830 0
DWIDTH 30 0
BBX 28 27 1 0
BITMAP
001E0000
00FFC000
03FFF000
0FFFF800
1FFFFC00
1FFFFE00
3FFFFF00
7FC0FF80
7F007F80
7F003F80
FE001FC0
FE001FC0
FC000FC0
FC000FC0
FC000FC0
FC001FC0
FE001FC0
FE001F80
7F003F80
7F807F80
7FC0FFC0
3FFFFFE0
1FFFFFF0
0FFFFFF0
07FFFFF0
03FFF3E0
00FFC1E0
ENDCHAR
STARTCHAR R
ENCODING 82
SWIDTH 631 0
DWIDTH 23 0
BBX 21 26 1 0
BITMAP
7FFE00
FFFF80
FFFFC0
FFFFE0
FFFFF0
FFFFF0
FE07F8
FE03F8
FE03F8
FE01F8
FE03F8
FE03F8
FFFFF0
FFFFF0
FFFFE0
FFFFE0
FFFFC0
FFFFE0
FFFFE0
FE07F0
FE07F0
FE03F8
FE03F8
FE03F8
7E01F8
7C00E0
ENDCHAR
STARTCHAR S
ENCODING 83
SWIDTH 583 0
DWIDTH 21 0
BBX 19 27 1 0
BITMAP
03F000
0FFE00
1FFF00
3FFF80
7FFFC0
7FFF80
7F1F80
FE0F00
FE0000
FE0000
7F8000
7FFC00
3FFF00
3FFF80
0FFFC0
03FFE0
007FE0
000FE0
3807E0
7C07E0
FE0FE0
FFFFE0
FFFFC0
7FFFC0
3FFF80
1FFF00
07FC00
ENDCHAR
STARTCHAR T
ENCODING 84
SWIDTH 731 0
DWIDTH 26 0
BBX 25 26 1 0
BITMAP
FFFFFF80
FFFFFF80
FFFFFF80
FFFFFF80
FFFFFF00
007E0000
007E0000
007E0000
007E0000
007E0000
007E0000
007E0000
007E0000
007E0000
007E0000
007E0000
007E0000
007E0000
007E0000
007E0000
007E0000
007E0000
007E0000
007E0000
007E0000
003E0000
ENDCHAR
STARTCHAR U
ENCODING 85
SWIDTH 726 0
DWIDTH 26 0
BBX 24 26 1 0
BITMAP
7C003E
FE007F
FE007F
FE007F
FE007F
FE007F
FE007F
FE007F
FE007F
FE007F
FE007F
FE007F
FE007F
FE007F
FE007F
7E007F
7E007E
7F00FE
7F00FE
3FC3FC
3FFFFC
1FFFF8
0FFFF8
0FFFF0
03FFC0
01FF80
ENDCHAR
STARTCHAR V
ENCODING 86
SWIDTH 783 0
DWIDTH 28 0
BBX 27 27 1 0
BITMAP
10000200
78000780
FC000FC0
FC000FE0
FE001FC0
FE001FC0
7F003F80
7F003F80
3F803F00
3F807F00
1FC07E00
1FC0FE00
0FC0FC00
0FE1FC00
07E1F800
07F3F800
03F3F000
03FFF000
01FFE000
01FFE000
00FFE000
00FFC000
007FC000
007F8000
003F8000
003F0000
001E0000
ENDCHAR
STARTCHAR W
ENCODING 87
SWIDTH 999 0
DWIDTH 36 0
BBX 34 27 1 0
BITMAP
1000000200
F801E00FC0
FC03F00FC0
FC03F00FC0
FE07F81FC0
FE07F81FC0
7E07F81F80
7F0FFC3F80
7F0FFC3F80
3F0FFC3F00
3F1FFE7F00
3F9FFE7F00
1F9FFE7E00
1FBFFFFE00
1FFF3FFE00
0FFF3FFC00
0FFF3FFC00
0FFE1FFC00
07FE1FF800
07FE1FF800
07FC0FF800
03FC0FF000
03FC0FF000
03F807F000
01F807E000
01F807E000
00F003C000
ENDCHAR
STARTCHAR X
ENCODING 88
SWIDTH 741 0
DWIDTH 27 0
BBX 25 27 1 0
BITMAP
38000E00
7C001F00
FE003F80
FE007F80
FF00FF80
7F80FF00
3FC1FE00
3FE3FC00
1FF7F800
0FFFF000
07FFF000
03FFE000
01FFC000
00FF8000
01FF8000
03FFC000
07FFE000
0FFFF000
0FF7F800
1FE3FC00
3FC3FE00
7F81FF00
FF80FF80
FF007F80
FE003F80
FC001F00
78000E00
ENDCHAR
STARTCHAR Y
ENCODING 89
SWIDTH 686 0
DWIDTH 25 0
BBX 23 27 1 0
BITMAP
300030
78007C
FC007E
FE00FE
FE01FE
FF01FC
7F83FC
3F87F8
3FC7F0
1FCFF0
0FEFE0
0FFFC0
07FFC0
03FF80
03FF00
01FF00
00FE00
00FE00
00FE00
00FE00
00FE00
00FE00
00FE00
00FE00
00FE00
00FC00
007C00
ENDCHAR
STARTCHAR Z
ENCODING 90
SWIDTH 643 0
DWIDTH 23 0
BBX 21 26 1 0
BITMAP
FFFFF0
FFFFF0
FFFFF8
FFFFF8
FFFFF0
7FFFF0
001FE0
003FC0
003F80
007F80
00FF00
01FE00
01FC00
03FC00
07F800
0FF000
0FF000
1FE000
3FC000
3F8000
7FFFF8
FFFFF8
FFFFF8
FFFFF8
FFFFF8
7FFFF0
ENDCHAR
STARTCHAR bracketleft
ENCODING 91
SWIDTH 348 0
DWIDTH 13 0
BBX 11 36 1 -8
BITMAP
7FC0
7FE0
FFE0
FFE0
FFE0
FC00
FC00
FC00
FC00
FC00
FC00
FC00
FC00
FC00
FC00
FC00
FC00
FC00
FC00
FC00
FC00
FC00
FC00
FC00
FC00
FC00
FC00
FC00
FC00
FC00
FC00
FFE0
FFE0
FFE0
7FE0
7FE0
ENDCHAR
STARTCHAR backslash
ENCODING 92
SWIDTH 528 0
DWIDTH 19 0
BBX 17 30 1 -2
BITMAP
780000
F80000
FC0000
FC0000
FE0000
7E0000
7F0000
3F0000
3F8000
1F8000
1FC000
0FC000
0FE000
07E000
07F000
03F000
03F800
03F800
01FC00
01FC00
00FE00
00FE00
007E00
007F00
003F00
003F80
001F80
001F80
000F80
000E00
ENDCHAR
STARTCHAR bracketright
ENCODING 93
SWIDTH 348 0
DWIDTH 13 0
BBX 10 36 1 -8
BITMAP
FF80
FFC0
FFC0
FFC0
FFC0
0FC0
0FC0
0FC0
0FC0
0FC0
0FC0
0FC0
0FC0
0FC0
0FC0
0FC0
0FC0
0FC0
0FC0
0FC0
0FC0
0FC0
0FC0
0FC0
0FC0
0FC0
0FC0
0FC0
0FC0
0FC0
0FC0
FFC0
FFC0
FFC0
FFC0
FF80
ENDCHAR
STARTCHAR asciicircum
ENCODING 94
SWIDTH 526 0
DWIDTH 19 0
BBX 16 11 1 9
BITMAP
0080
01C0
03E0
07F0
0FF8
1FFC
3FFE
7F7F
FE3F
7C1F
380E
ENDCHAR
STARTCHAR underscore
ENCODING 95
SWIDTH 826 0
DWIDTH 30 0
BBX 28 5 1 -8
BITMAP
FFFFFFE0
FFFFFFF0
FFFFFFF0
FFFFFFF0
FFFFFFF0
ENDCHAR
STARTCHAR grave
ENCODING 96
SWIDTH 482 0
DWIDTH 17 0
BBX 11 7 3 21
BITMAP
3000
7E00
7FC0
FFE0
7FE0
3FE0
03C0
ENDCHAR
STARTCHAR a
ENCODING 97
SWIDTH 596 0
DWIDTH 21 0
BBX 19 19 1 0
BITMAP
03E3C0
0FF7E0
1FFFE0
3FFFE0
7FFFE0
7FFFE0
FFBFE0
FE0FE0
FC0FE0
FC0FE0
FC0FE0
FE0FE0
FFBFE0
7FFFE0
7FFFE0
3FFFE0
1FFFE0
0FF7E0
03E3C0
ENDCHAR
STARTCHAR b
ENCODING 98
SWIDTH 592 0
DWIDTH 21 0
BBX 19 28 1 0
BITMAP
3C0000
7E0000
FE0000
FE0000
FE0000
FE0000
FE0000
FE0000
FE0000
FE7800
FFFE00
FFFF00
FFFF80
FFFFC0
FFFFE0
FF9FE0
FF0FE0
FE07E0
FE07E0
FE07E0
FF0FE0
FF9FE0
FFFFE0
FFFFC0
FFFF80
FFFF00
7FFE00
7CF800
ENDCHAR
STARTCHAR c
ENCODING 99
SWIDTH 517 0
DWIDTH 19 0
BBX 17 19 1 0
BITMAP
03F800
0FFE00
1FFF00
3FFF80
7FFF80
7FFF00
FF1E00
FE0400
FE0000
FC0000
FE0000
FE0400
FF1E00
7FFF00
7FFF80
3FFF80
1FFF00
0FFE00
03F800
ENDCHAR
STARTCHAR d
ENCODING 100
SWIDTH 598 0
DWIDTH 22 0
BBX 19 28 1 0
BITMAP
0003C0
0007E0
0007E0
0007E0
0007E0
0007E0
0007E0
0007E0
0007E0
03E7E0
0FF7E0
1FFFE0
3FFFE0
7FFFE0
7FFFE0
7FBFE0
FE0FE0
FE0FE0
FC07E0
FE0FE0
FE0FE0
7FBFE0
7FFFE0
7FFFE0
3FFFE0
1FFFE0
0FFFE0
03E3C0
ENDCHAR
STARTCHAR e
ENCODING 101
SWIDTH 573 0
DWIDTH 21 0
BBX 19 19 1 0
BITMAP
03FC00
0FFF00
1FFF80
3FFFC0
7FFFC0
7F9FE0
FF0FE0
FE0FE0
FFFFE0
FFFFC0
FFFFC0
FFFF00
FE0000
7F0380
7FFF80
3FFFC0
3FFFC0
0FFF80
07FF00
ENDCHAR
STARTCHAR f
ENCODING 102
SWIDTH 450 0
DWIDTH 16 0
BBX 15 28 1 0
BITMAP
00F8
03F8
07FC
0FFC
1FFC
1FF8
1FC0
1F80
1F80
7FFC
FFFC
FFFE
FFFE
FFFE
FFFC
1F80
1F80
1F80
1F80
1F80
1F80
1F80
1F80
1F80
1F80
1F80
1F80
0F00
ENDCHAR
STARTCHAR g
ENCODING 103
SWIDTH 585 0
DWIDTH 21 0
BBX 19 27 1 -8
BITMAP
03E7C0
0FF7C0
1FFFE0
3FFFE0
7FFFE0
7FFFE0
FF1FE0
FE0FE0
FC0FE0
FC0FE0
FC0FE0
FE1FE0
FFFFE0
7FFFE0
3FFFE0
3FFFE0
1FFFE0
07FFE0
000FE0
000FE0
1C1FC0
3FFFC0
3FFF80
3FFF80
3FFF00
1FFE00
07F800
ENDCHAR
STARTCHAR h
ENCODING 104
SWIDTH 605 0
DWIDTH 22 0
BBX 19 28 1 0
BITMAP
3C0000
7E0000
FE0000
FE0000
FE0000
FE0000
FE0000
FE0000
FE0000
FE7C00
FFFE00
FFFF80
FFFF80
FFFFC0
FFFFE0
FF9FE0
FE0FE0
FE07E0
FE07E0
FE07E0
FE07E0
FE07E0
FE07E0
FE07E0
FE07E0
FE07E0
7E07E0
7C03E0
ENDCHAR
STARTCHAR i
ENCODING 105
SWIDTH 255 0
DWIDTH 9 0
BBX 7 28 1 0
BITMAP
3C
7E
FE
FE
FE
7C
00
00
00
7C
7E
FE
FE
FE
FE
FE
FE
FE
FE
FE
FE
FE
FE
FE
FE
FE
7E
7C
ENDCHAR
STARTCHAR j
ENCODING 106
SWIDTH 252 0
DWIDTH 9 0
BBX 13 36 -5 -8
BITMAP
00E0
01F0
03F8
03F8
03F8
01F0
0000
0000
0000
01F0
01F8
03F8
03F8
03F8
03F8
03F8
03F8
03F8
03F8
03F8
03F8
03F8
03F8
03F8
03F8
03F8
03F8
03F8
03F8
07F0
7FF0
FFE0
FFE0
FFC0
FF80
7E00
ENDCHAR
STARTCHAR k
ENCODING 107
SWIDTH 536 0
DWIDTH 19 0
BBX 18 28 1 0
BITMAP
7C0000
7E0000
FE0000
FE0000
FE0000
FE0000
FE0000
FE0000
FE0000
FE0000
FE1E00
FE3F00
FE7F00
FEFF80
FFFF00
FFFE00
FFFC00
FFF800
FFF000
FFF800
FFFC00
FFFE00
FFFF00
FEFF80
FE7FC0
FE3F80
7E1F80
7C0700
ENDCHAR
STARTCHAR l
ENCODING 108
SWIDTH 327 0
DWIDTH 12 0
BBX 10 28 1 0
BITMAP
7C00
7E00
FE00
FE00
FE00
FE00
FE00
FE00
FE00
FE00
FE00
FE00
FE00
FE00
FE00
FE00
FE00
FE00
FE00
FE00
FE00
FE00
7FC0
7FC0
7FC0
7FC0
3FC0
1FC0
ENDCHAR
STARTCHAR m
ENCODING 109
SWIDTH 851 0
DWIDTH 31 0
BBX 28 19 1 0
BITMAP
7C781F00
7DFE3FC0
FFFF7FC0
FFFFFFE0
FFFFFFF0
FFFFFFF0
FF3FEFF0
FE1FC3F0
FE1FC3F0
FE1FC3F0
FE1FC3F0
FE1FC3F0
FE1FC3F0
FE1FC3F0
FE1FC3F0
FE1FC3F0
FE1F83F0
7E1F83F0
7C0F81E0
ENDCHAR
STARTCHAR n
ENCODING 110
SWIDTH 606 0
DWIDTH 22 0
BBX 19 19 1 0
BITMAP
7C7C00
7FFF00
FFFF80
FFFFC0
FFFFC0
FFFFE0
FF9FE0
FE0FE0
FE07E0
FE07E0
FE07E0
FE07E0
FE07E0
FE07E0
FE07E0
FE07E0
FE07E0
7E07E0
7C03C0
ENDCHAR
STARTCHAR o
ENCODING 111
SWIDTH 600 0
DWIDTH 22 0
BBX 20 19 1 0
BITMAP
03FC00
0FFF00
1FFF80
3FFFC0
7FFFC0
7FFFE0
FF0FE0
FE07F0
FC07F0
FC07F0
FC07F0
FE07F0
FF0FE0
7FFFE0
7FFFC0
3FFFC0
1FFF80
0FFF00
03FC00
ENDCHAR
STARTCHAR p
ENCODING 112
SWIDTH 582 0
DWIDTH 21 0
BBX 19 27 1 -8
BITMAP
7CF800
7DFE00
FFFF00
FFFF80
FFFFC0
FFFFC0
FF1FE0
FE0FE0
FE07E0
FE07E0
FE07E0
FF0FE0
FFFFC0
FFFFC0
FFFF80
FFFF80
FFFF00
FFFC00
FE2000
FE0000
FE0000
FE0000
FE0000
FE0000
FE0000
7E0000
7C0000
ENDCHAR
STARTCHAR q
ENCODING 113
SWIDTH 582 0
DWIDTH 21 0
BBX 19 27 1 -8
BITMAP
03C7C0
0FFFC0
1FFFE0
3FFFE0
7FFFE0
7FFFE0
FF3FE0
FE0FE0
FC0FE0
FC0FE0
FC0FE0
FE1FE0
FFFFE0
7FFFE0
7FFFE0
3FFFE0
1FFFE0
07FFE0
008FE0
000FE0
000FE0
000FE0
000FE0
000FE0
000FE0
000FC0
0007C0
ENDCHAR
STARTCHAR r
ENCODING 114
SWIDTH 457 0
DWIDTH 16 0
BBX 15 19 1 0
BITMAP
7C7C
7FFE
FFFE
FFFE
FFFE
FFFC
FF08
FE00
FE00
FE00
FE00
FE00
FE00
FE00
FE00
FE00
FE00
7E00
7C00
ENDCHAR
STARTCHAR s
ENCODING 115
SWIDTH 489 0
DWIDTH 18 0
BBX 16 19 1 0
BITMAP
0FF8
3FFE
7FFE
7FFE
7FFC
7C08
7E00
7FF0
7FFC
3FFE
1FFE
0FFF
20FF
783F
FFFF
FFFE
FFFE
7FFC
1FF0
ENDCHAR
STARTCHAR t
ENCODING 116
SWIDTH 449 0
DWIDTH 16 0
BBX 15 25 1 0
BITMAP
1F80
1F80
1F80
1F80
1F80
1F80
FFFC
FFFC
FFFE
FFFE
FFFE
FFFC
1F80
1F80
1F80
1F80
1F80
1F80
1F80
1FF8
1FFC
0FFC
0FFC
07F8
01F8
ENDCHAR
STARTCHAR u
ENCODING 117
SWIDTH 606 0
DWIDTH 22 0
BBX 19 19 1 0
BITMAP
7C03E0
7E07E0
FE07E0
FE07E0
FE07E0
FE07E0
FE07E0
FE07E0
FE07E0
FE07E0
FE07E0
7E0FE0
7F9FE0
7FFFE0
3FFFE0
3FFFE0
1FFFE0
0FF7E0
03E3C0
ENDCHAR
STARTCHAR v
ENCODING 118
SWIDTH 638 0
DWIDTH 23 0
BBX 21 19 1 0
BITMAP
7800F0
FC01F8
FC01F8
FE03F8
FE03F8
7F07F0
7F07F0
3F8FE0
3F8FE0
1FDFC0
0FDF80
0FFF80
07FF00
07FF00
03FE00
03FC00
01FC00
00F800
007000
ENDCHAR
STARTCHAR w
ENCODING 119
SWIDTH 793 0
DWIDTH 29 0
BBX 27 19 1 0
BITMAP
780E0380
FC1F07E0
FC3F07E0
FC3F8FE0
FE7F8FC0
7E7F9FC0
7F7FDFC0
7FFFDF80
3FFFFF80
3FFFFF00
1FFFFF00
1FFFFF00
1FFBFE00
0FF3FE00
0FF1FC00
07F1FC00
07E1FC00
07E0F800
03C07000
ENDCHAR
STARTCHAR x
ENCODING 120
SWIDTH 567 0
DWIDTH 20 0
BBX 19 19 1 0
BITMAP
780380
FC07C0
FE0FE0
FF1FE0
FFBFC0
7FFFC0
3FFF80
1FFF00
0FFE00
07FC00
0FFE00
1FFF00
3FFF80
7FFFC0
FFBFC0
FF1FE0
FE0FE0
FC07C0
780380
ENDCHAR
STARTCHAR y
ENCODING 121
SWIDTH 604 0
DWIDTH 22 0
BBX 20 28 1 -9
BITMAP
7801E0
FC03F0
FC03F0
FE07F0
FF07F0
7F0FE0
3F8FE0
3F9FC0
1FDFC0
1FFF80
0FFF80
0FFF00
07FF00
03FF00
03FE00
01FE00
01FC00
01FC00
03F800
03F800
03F000
07F000
07F000
0FE000
0FE000
0FC000
07C000
010000
ENDCHAR
STARTCHAR z
ENCODING 122
SWIDTH 586 0
DWIDTH 21 0
BBX 19 19 1 0
BITMAP
3FFF80
7FFFC0
7FFFE0
7FFFE0
7FFFC0
7FFFC0
007F80
00FF00
03FE00
07F800
0FF000
1FE000
3FC000
7FFFE0
FFFFE0
FFFFE0
FFFFE0
FFFFE0
7FFFC0
ENDCHAR
STARTCHAR braceleft
ENCODING 123
SWIDTH 381 0
DWIDTH 14 0
BBX 12 36 1 -8
BITMAP
00E0
03F0
07F0
0FF0
0FF0
0F80
0F80
0F80
0F80
0F80
0F80
0F80
0F80
0F80
1F80
3F00
FF00
FE00
FE00
FF00
FF00
1F80
0F80
0F80
0F80
0F80
0F80
0F80
0F80
0F80
0F80
0FF0
0FF0
07F0
03F0
01F0
ENDCHAR
STARTCHAR bar
ENCODING 124
SWIDTH 217 0
DWIDTH 8 0
BBX 5 36 1 -8
BITMAP
78
78
F8
F8
F8
F8
F8
F8
F8
F8
F8
F8
F8
F8
F8
F8
F8
F8
F8
F8
F8
F8
F8
F8
F8
F8
F8
F8
F8
F8
F8
F8
F8
F8
78
78
ENDCHAR
STARTCHAR braceright
ENCODING 125
SWIDTH 381 0
DWIDTH 14 0
BBX 12 36 1 -8
BITMAP
F000
FC00
FE00
FE00
FF00
1F00
1F00
1F00
1F00
1F00
1F00
1F00
1F00
1F00
1F00
1FC0
0FF0
0FF0
07F0
0FF0
1FE0
1F00
1F00
1F00
1F00
1F00
1F00
1F00
1F00
1F00
1F00
FF00
FE00
FE00
FC00
F800
ENDCHAR
STARTCHAR asciitilde
ENCODING 126
SWIDTH 651 0
DWIDTH 23 0
BBX 19 8 2 6
BITMAP
020100
1FC7C0
7FFFC0
7FFFE0
FFFFC0
FFFF80
F9FF80
787E00
ENDCHAR
STARTCHAR exclamdown
ENCODING 161
SWIDTH 268 0
DWIDTH 10 0
BBX 7 26 1 -8
BITMAP
7E
7E
FE
FE
7E
7E
00
00
00
3C
7E
7E
7E
7E
7E
7E
7E
7E
7E
7E
7E
7E
7E
7E
7E
7C
ENDCHAR
STARTCHAR cent
ENCODING 162
SWIDTH 434 0
DWIDTH 16 0
BBX 14 27 1 -3
BITMAP
0380
03C0
03C0
03C0
03C0
03C0
07E0
1FF8
3FFC
7FFC
FFF8
FC70
FC00
F800
F800
FC20
FFF8
7FF8
7FFC
3FF8
0FF0
03C0
03C0
03C0
03C0
03C0
0380
ENDCHAR
STARTCHAR sterling
ENCODING 163
SWIDTH 675 0
DWIDTH 24 0
BBX 23 26 1 0
BITMAP
00FFC0
01FFF0
07FFF8
07FFFC
0FFFFC
1FFBFC
1FC078
1F8020
1F8000
1F8000
1F8000
FFFC00
FFFE00
FFFE00
FFFC00
3FF800
0FC000
0FC000
0FC000
0FC000
1FFFFC
3FFFFE
3FFFFE
3FFFFE
3FFFFE
1FFFFC
ENDCHAR
STARTCHAR currency
ENCODING 164
SWIDTH 677 0
DWIDTH 24 0
BBX 22 28 1 0
BITMAP
300010
F8003C
F8007C
FF01FC
7FFFFC
7FFFF8
3FFFF0
3FFFF0
3FFFF8
7F03F8
7E01F8
7C00F8
7C00FC
7C00FC
7C00FC
7C00FC
7C00FC
7E00F8
7F03F8
3FFFF8
3FFFF0
3FFFF0
7FFFF8
7FFFFC
FF03FC
F8007C
F8003C
300010
ENDCHAR
STARTCHAR yen
ENCODING 165
SWIDTH 677 0
DWIDTH 24 0
BBX 23 27 1 0
BITMAP
100010
780078
FC007C
FE00FE
FE01FE
FF01FC
7F03F8
3F87F8
3FC7F0
1FCFE0
0FEFE0
0FFFC0
07FF80
03FF80
1FFFE0
1FFFF0
1FFFF0
1FFFE0
00FC00
00FC00
0FFFC0
1FFFE0
1FFFF0
1FFFE0
00FC00
00FC00
007800
ENDCHAR
STARTCHAR brokenbar
ENCODING 166
SWIDTH 215 0
DWIDTH 8 0
BBX 5 36 1 -8
BITMAP
70
78
F8
F8
F8
F8
F8
F8
F8
F8
F8
F8
F8
F8
F8
78
20
00
00
00
78
F8
F8
F8
F8
F8
F8
F8
F8
F8
F8
F8
F8
F8
78
78
ENDCHAR
STARTCHAR section
ENCODING 167
SWIDTH 560 0
DWIDTH 20 0
BBX 18 36 1 -8
BITMAP
01E000
0FFC00
1FFF00
3FFF80
7FFF80
7FFF00
FE1F00
FC0E00
FC0000
FE0000
7FC000
7FFC00
3FFF00
3FFF80
7FFFC0
7FFFC0
FE1FC0
FC0FC0
FE0FC0
7F0FC0
7FFFC0
7FFFC0
3FFF80
1FFF80
07FFC0
00FFC0
001FC0
300FC0
7C0FC0
FE0FC0
FFFFC0
FFFF80
7FFF80
3FFF00
1FFE00
07F800
ENDCHAR
STARTCHAR dieresis
ENCODING 168
SWIDTH 489 0
DWIDTH 18 0
BBX 17 7 1 21
BITMAP
3C1F00
7E3F00
FE3F80
FE3F80
FE3F80
7E3F00
100400
ENDCHAR
STARTCHAR copyright
ENCODING 169
SWIDTH 711 0
DWIDTH 26 0
BBX 24 24 1 3
BITMAP
00FF00
07FFE0
1FFFF0
3F81F8
3C003C
787E1C
71FF1E
F3FF8E
E3FF0E
E7C20F
E7800F
E78007
E78007
E7800F
E7C30E
E3FF8E
F1FF8E
70FF1E
783C1C
3C007C
1FFFF8
0FFFF0
07FFC0
001400
ENDCHAR
STARTCHAR ordfeminine
ENCODING 170
SWIDTH 445 0
DWIDTH 16 0
BBX 14 14 1 12
BITMAP
0638
1FF8
3FFC
7FFC
FFFC
F8FC
F87C
F07C
F8FC
FFFC
7FFC
7FFC
3FFC
0F38
ENDCHAR
STARTCHAR guillemotleft
ENCODING 171
SWIDTH 668 0
DWIDTH 24 0
BBX 23 19 1 0
BITMAP
00C010
01E07C
03E0FC
07F1FE
0FE3FC
1FC7F8
3F8FF0
7F1FE0
FE1FC0
FC3F80
FE1FC0
FF1FE0
7F8FF0
3FC7F8
1FE3FC
0FF1FC
07F0FC
03E07C
00C038
ENDCHAR
STARTCHAR logicalnot
ENCODING 172
SWIDTH 526 0
DWIDTH 19 0
BBX 17 12 1 4
BITMAP
FFFF80
FFFF80
FFFF80
FFFF80
FFFF80
FFFF80
000780
000780
000780
000780
000780
000200
ENDCHAR
STARTCHAR registered
ENCODING 174
SWIDTH 711 0
DWIDTH 26 0
BBX 24 24 1 3
BITMAP
00FF00
07FFE0
1FFFF0
3F81F8
3C003C
79FE1C
71FF0E
F1FF8E
E1EF8E
E1E3CF
E1E38F
E1FF87
E1FF87
E1FF0F
E1FF8E
E1E78E
F1E3CE
71E39E
78013C
3C007C
1FFFF8
0FFFF0
07FFC0
001400
ENDCHAR
STARTCHAR degree
ENCODING 176
SWIDTH 407 0
DWIDTH 15 0
BBX 13 13 1 15
BITMAP
0200
1FC0
3FE0
7FF0
FFF0
F0F8
F078
F078
F8F8
FFF0
7FF0
3FE0
1F80
ENDCHAR
STARTCHAR plusminus
ENCODING 177
SWIDTH 505 0
DWIDTH 18 0
BBX 16 20 1 0
BITMAP
0080
03E0
07E0
07E0
3FFC
FFFF
FFFF
FFFF
FFFF
7FFF
07E0
07E0
03E0
0180
0000
7FFE
FFFF
FFFF
FFFF
7FFE
ENDCHAR
STARTCHAR twosuperior
ENCODING 178
SWIDTH 455 0
DWIDTH 16 0
BBX 15 19 1 8
BITMAP
0FC0
1FE0
3FF0
7FF8
FFFC
FCFC
F87C
F87C
F8FC
71FC
03F8
0FF0
3FE0
7FC0
FFFC
FFFE
FFFE
FFFE
7FFE
ENDCHAR
STARTCHAR threesuperior
ENCODING 179
SWIDTH 457 0
DWIDTH 16 0
BBX 15 20 1 7
BITMAP
0FC0
1FF0
3FF8
7FFC
7FFC
7C7C
787C
00FC
07F8
07F8
07FC
23FC
F87C
F87E
FCFC
FFFC
7FF8
3FF8
1FE0
0100
ENDCHAR
STARTCHAR acute
ENCODING 180
SWIDTH 605 0
DWIDTH 22 0
BBX 11 8 5 20
BITMAP
00C0
0FC0
7FE0
FFE0
FFE0
7F80
7C00
2000
ENDCHAR
STARTCHAR mu
ENCODING 181
SWIDTH 601 0
DWIDTH 22 0
BBX 19 27 1 -8
BITMAP
7C03C0
7E07E0
FE07E0
FE07E0
FE07E0
FE07E0
FE07E0
FE07E0
FE07E0
FE07E0
FE07E0
FE0FE0
FFFFE0
FFFFE0
FFFFE0
FFFFE0
FFFFE0
FFF7E0
FEE3C0
FE0000
FE0000
FE0000
FE0000
FE0000
FE0000
7E0000
7C0000
ENDCHAR
STARTCHAR paragraph
ENCODING 182
SWIDTH 614 0
DWIDTH 22 0
BBX 19 30 1 -8
BITMAP
3FFFC0
7FFFE0
7FFFE0
FFFFE0
FFE3E0
FFE3E0
FFE3E0
FFE3E0
FFE3E0
7FE3E0
7FE3E0
3FE3E0
03E3E0
03E3E0
03E3E0
03E3E0
03E3E0
03E3E0
03E3E0
03E3E0
03E3E0
03E3E0
03E3E0
03E3E0
03E3E0
03E3E0
03E3E0
03E3E0
01E3E0
01E3E0
ENDCHAR
STARTCHAR periodcentered
ENCODING 183
SWIDTH 237 0
DWIDTH 9 0
BBX 7 6 1 8
BITMAP
FC
FE
FE
FE
FE
7C
ENDCHAR
STARTCHAR cedilla
ENCODING 184
SWIDTH 559 0
DWIDTH 20 0
BBX 7 8 6 -7
BITMAP
78
FE
7E
4E
6E
FE
FC
38
ENDCHAR
STARTCHAR onesuperior
ENCODING 185
SWIDTH 321 0
DWIDTH 12 0
BBX 9 19 1 8
BITMAP
0700
0F80
1F80
3F80
7F80
FF80
FF80
FF80
7F80
0F80
0F80
0F80
0F80
0F80
0F80
0F80
0F80
0F80
0F80
ENDCHAR
STARTCHAR ordmasculine
ENCODING 186
SWIDTH 439 0
DWIDTH 16 0
BBX 14 14 1 12
BITMAP
0200
1FE0
3FF0
7FF8
7FF8
F8FC
F87C
F07C
F87C
FCFC
7FF8
7FF8
3FF0
1FC0
ENDCHAR
STARTCHAR guillemotright
ENCODING 187
SWIDTH 669 0
DWIDTH 24 0
BBX 23 19 1 0
BITMAP
300C00
781E00
FC1F00
FE3F80
FF1FC0
7F8FE0
3FC7F0
1FE3F8
0FE1FC
07F0FE
0FF1FC
1FE3FC
3FC7F8
7F8FF0
FF1FE0
FE3FC0
FC1F80
F81F00
700C00
ENDCHAR
STARTCHAR onequarter
ENCODING 188
SWIDTH 786 0
DWIDTH 28 0
BBX 24 29 2 -1
BITMAP
0400E0
1E00E0
3E01E0
7E01C0
FE03C0
FE0380
FE0780
5E0700
1E0F00
1E0E00
1E1E00
1E1C00
1E3C00
1E39CF
1E79EF
0073EF
00F3CF
01E3CF
01C3CF
03C7CF
0387FF
0787FF
0707FF
0F03FF
0E000F
1E000F
1C000F
3C000F
180000
ENDCHAR
STARTCHAR onehalf
ENCODING 189
SWIDTH 804 0
DWIDTH 29 0
BBX 25 29 2 -1
BITMAP
0400E000
1E00E000
3E01E000
7E01C000
FE03C000
FE038000
FE078000
5E070000
1E0F0000
1E0E0000
1E1E0000
1E1C0000
1E3C0000
1E38F800
1E7BFE00
0073FE00
00F7FF00
01E78F00
01C78F00
03C78F00
03803F00
07807E00
0701FC00
0F03F800
0E07FF80
1E07FF80
1C07FF80
3C03FF00
18000000
ENDCHAR
STARTCHAR threequarters
ENCODING 190
SWIDTH 842 0
DWIDTH 30 0
BBX 26 29 2 -1
BITMAP
06003800
3F803C00
7FC07800
7FE07000
FBE0F000
71E0E000
03E1E000
0FC1C000
0FE3C000
27E38000
F1E78000
F1E70000
FFEF0000
7FCE73C0
3FDE7BC0
0E1CFBC0
003CF3C0
0078F3C0
0078F3C0
00F1F3C0
00E1FFC0
01E1FFC0
01C1FFC0
03C0FFC0
038003C0
078003C0
070003C0
0F0003C0
06000000
ENDCHAR
STARTCHAR questiondown
ENCODING 191
SWIDTH 511 0
DWIDTH 18 0
BBX 17 27 1 -8
BITMAP
03E000
07F000
07F000
07F000
07F000
07E000
018000
000000
000000
018000
07E000
07E000
0FE000
3FE000
7FE000
7F8000
FE0000
FC0000
FC0F00
FC1F80
FC1F80
FFFF80
7FFF00
7FFE00
3FFE00
1FFC00
07F000
ENDCHAR
STARTCHAR Agrave
ENCODING 192
SWIDTH 765 0
DWIDTH 28 0
BBX 26 35 1 0
BITMAP
00800000
01F00000
01FF0000
03FF8000
01FF8000
00FF8000
001F8000
00030000
00000000
001E0000
003F0000
007F0000
007F8000
00FF8000
00FFC000
01FFC000
01FFE000
03FFE000
03FFF000
07FFF000
07F7F800
07F3F800
0FE3F800
0FE1FC00
1FFFFC00
1FFFFE00
3FFFFE00
3FFFFF00
7FFFFF00
7F003F80
FE003F80
FE001FC0
FC001FC0
FC000FC0
78000F00
ENDCHAR
STARTCHAR Aacute
ENCODING 193
SWIDTH 765 0
DWIDTH 28 0
BBX 26 35 1 0
BITMAP
0001C000
000FE000
007FE000
007FE000
007FE000
007F8000
00780000
00000000
00000000
001E0000
003F0000
007F0000
007F8000
00FF8000
00FFC000
01FFC000
01FFE000
03FFE000
03FFF000
07FFF000
07F7F800
07F3F800
0FE3F800
0FE1FC00
1FFFFC00
1FFFFE00
3FFFFE00
3FFFFF00
7FFFFF00
7F003F80
FE003F80
FE001FC0
FC001FC0
FC000FC0
78000F00
ENDCHAR
STARTCHAR Acircumflex
ENCODING 194
SWIDTH 765 0
DWIDTH 28 0
BBX 26 35 1 0
BITMAP
001E0000
00FFC000
03FFF000
03FFF000
03FFF000
03F3E000
0080C000
00000000
00000000
001E0000
003F0000
007F0000
007F8000
00FF8000
00FFC000
01FFC000
01FFE000
03FFE000
03FFF000
07FFF000
07F7F800
07F3F800
0FE3F800
0FE1FC00
1FFFFC00
1FFFFE00
3FFFFE00
3FFFFF00
7FFFFF00
7F003F80
FE003F80
FE001FC0
FC001FC0
FC000FC0
78000F00
ENDCHAR
STARTCHAR Atilde
ENCODING 195
SWIDTH 765 0
DWIDTH 28 0
BBX 26 35 1 0
BITMAP
00F8E000
01FDF000
03FFF000
03FFE000
03FFE000
038FC000
00000000
00000000
00000000
001E0000
003F0000
007F0000
007F8000
00FF8000
00FFC000
01FFC000
01FFE000
03FFE000
03FFF000
07FFF000
07F7F800
07F3F800
0FE3F800
0FE1FC00
1FFFFC00
1FFFFE00
3FFFFE00
3FFFFF00
7FFFFF00
7F003F80
FE003F80
FE001FC0
FC001FC0
FC000FC0
78000F00
ENDCHAR
STARTCHAR Adieresis
ENCODING 196
SWIDTH 765 0
DWIDTH 28 0
BBX 26 35 1 0
BITMAP
03C1F000
07E1F800
07E1F800
07E1F800
07E1F800
07E1F800
00000000
00000000
00000000
001E0000
003F0000
007F0000
007F8000
00FF8000
00FFC000
01FFC000
01FFE000
03FFE000
03FFF000
07FFF000
07F7F800
07F3F800
0FE3F800
0FE1FC00
1FFFFC00
1FFFFE00
3FFFFE00
3FFFFF00
7FFFFF00
7F003F80
FE003F80
FE001FC0
FC001FC0
FC000FC0
78000F00
ENDCHAR
STARTCHAR Aring
ENCODING 197
SWIDTH 765 0
DWIDTH 28 0
BBX 26 33 1 0
BITMAP
001E0000
007F0000
00778000
00E18000
00E18000
00E18000
00F38000
007F0000
003F0000
007F0000
007F8000
00FF8000
00FFC000
01FFC000
01FFE000
03FFE000
03FFF000
07FFF000
07F7F800
07F3F800
0FE3F800
0FE1FC00
1FFFFC00
1FFFFE00
3FFFFE00
3FFFFF00
7FFFFF00
7F003F80
FE003F80
FE001FC0
FC001FC0
FC000FC0
78000F00
ENDCHAR
STARTCHAR AE
ENCODING 198
SWIDTH 1148 0
DWIDTH 41 0
BBX 40 26 0 0
BITMAP
00001FFFFF
00003FFFFF
00003FFFFF
00007FFFFF
0000FFFFFF
0001FFFFFF
0003FFC000
0007FFC000
000FFFC000
001FFFC000
003FEFFFF0
007FCFFFF0
00FF8FFFF0
00FF0FFFF0
01FE0FFFF0
03FFFFFFF0
07FFFFC000
0FFFFFC000
1FFFFFC000
3FFFFFC000
7FFFFFFFFF
FF800FFFFF
FF000FFFFF
FE000FFFFF
7C000FFFFF
380007FFFF
ENDCHAR
STARTCHAR Ccedilla
ENCODING 199
SWIDTH 679 0
DWIDTH 24 0
BBX 23 34 1 -7
BITMAP
001F00
00FFE0
03FFF8
07FFFC
1FFFFE
1FFFFC
3FFFFC
7FC078
7F8030
FF0000
FE0000
FE0000
FC0000
FC0000
FC0000
FC0000
FE0000
FE0000
7F0000
7F8038
3FE0F8
3FFFFC
1FFFFE
0FFFFC
07FFFC
01FFF0
007FC0
003F00
003F80
001380
001380
003F80
003F00
001E00
ENDCHAR
STARTCHAR Egrave
ENCODING 200
SWIDTH 638 0
DWIDTH 23 0
BBX 21 35 1 0
BITMAP
010000
03F000
03FE00
03FF00
03FF00
01FF00
003F00
000600
000000
7FFFF8
7FFFF8
FFFFF8
FFFFF8
FFFFF8
FFFFF0
FE0000
FE0000
FE0000
FE0000
FFFF80
FFFF80
FFFF80
FFFF80
FFFF80
FFFF00
FE0000
FE0000
FE0000
FE0000
FFFFF8
FFFFF8
FFFFF8
FFFFF8
7FFFF8
7FFFF0
ENDCHAR
STARTCHAR Eacute
ENCODING 201
SWIDTH 638 0
DWIDTH 23 0
BBX 21 35 1 0
BITMAP
000700
007F00
01FF80
03FF80
03FF80
01FC00
01E000
000000
000000
7FFFF8
7FFFF8
FFFFF8
FFFFF8
FFFFF8
FFFFF0
FE0000
FE0000
FE0000
FE0000
FFFF80
FFFF80
FFFF80
FFFF80
FFFF80
FFFF00
FE0000
FE0000
FE0000
FE0000
FFFFF8
FFFFF8
FFFFF8
FFFFF8
7FFFF8
7FFFF0
ENDCHAR
STARTCHAR Ecircumflex
ENCODING 202
SWIDTH 638 0
DWIDTH 23 0
BBX 21 35 1 0
BITMAP
007800
03FF00
0FFFC0
1FFFC0
0FFFC0
0FCF80
060300
000000
000000
7FFFF8
7FFFF8
FFFFF8
FFFFF8
FFFFF8
FFFFF0
FE0000
FE0000
FE0000
FE0000
FFFF80
FFFF80
FFFF80
FFFF80
FFFF80
FFFF00
FE0000
FE0000
FE0000
FE0000
FFFFF8
FFFFF8
FFFFF8
FFFFF8
7FFFF8
7FFFF0
ENDCHAR
STARTCHAR Edieresis
ENCODING 203
SWIDTH 638 0
DWIDTH 23 0
BBX 21 35 1 0
BITMAP
0F07C0
1F87E0
1F8FE0
1F8FE0
1F87E0
1F87C0
000000
000000
000000
7FFFF8
7FFFF8
FFFFF8
FFFFF8
FFFFF8
FFFFF0
FE0000
FE0000
FE0000
FE0000
FFFF80
FFFF80
FFFF80
FFFF80
FFFF80
FFFF00
FE0000
FE0000
FE0000
FE0000
FFFFF8
FFFFF8
FFFFF8
FFFFF8
7FFFF8
7FFFF0
ENDCHAR
STARTCHAR Igrave
ENCODING 204
SWIDTH 267 0
DWIDTH 10 0
BBX 11 35 -2 0
BITMAP
2000
7C00
7F80
FFE0
FFE0
7FE0
0FC0
00C0
0000
0FC0
0FC0
0FC0
0FC0
0FC0
0FC0
0FC0
0FC0
0FC0
0FC0
0FC0
0FC0
0FC0
0FC0
0FC0
0FC0
0FC0
0FC0
0FC0
0FC0
0FC0
0FC0
0FC0
0FC0
0FC0
0F80
ENDCHAR
STARTCHAR Iacute
ENCODING 205
SWIDTH 269 0
DWIDTH 10 0
BBX 10 35 1 0
BITMAP
0380
1FC0
FFC0
FFC0
FFC0
FF00
7800
0000
0000
7E00
7E00
7E00
7E00
7E00
7E00
7E00
7E00
7E00
7E00
7E00
7E00
7E00
7E00
7E00
7E00
7E00
7E00
7E00
7E00
7E00
7E00
7E00
7E00
7E00
3C00
ENDCHAR
STARTCHAR Icircumflex
ENCODING 206
SWIDTH 270 0
DWIDTH 10 0
BBX 14 35 -2 0
BITMAP
0780
3FF0
FFFC
FFFC
FFFC
FCF8
2030
0000
0000
0FC0
0FC0
0FC0
0FC0
0FC0
0FC0
0FC0
0FC0
0FC0
0FC0
0FC0
0FC0
0FC0
0FC0
0FC0
0FC0
0FC0
0FC0
0FC0
0FC0
0FC0
0FC0
0FC0
0FC0
0FC0
0780
ENDCHAR
STARTCHAR Idieresis
ENCODING 207
SWIDTH 268 0
DWIDTH 10 0
BBX 16 35 -3 0
BITMAP
7C3E
FC3F
FC3F
FC3F
FC3F
FC3F
0000
0000
0000
07E0
07E0
07E0
07E0
07E0
07E0
07E0
07E0
07E0
07E0
07E0
07E0
07E0
07E0
07E0
07E0
07E0
07E0
07E0
07E0
07E0
07E0
07E0
07E0
07E0
03C0
ENDCHAR
STARTCHAR Eth
ENCODING 208
SWIDTH 775 0
DWIDTH 28 0
BBX 26 26 1 0
BITMAP
1FFFC000
1FFFF000
1FFFF800
1FFFFC00
1FFFFE00
1FFFFF00
1F81FF00
1F807F80
1F803F80
1F801FC0
7FE01FC0
FFF01FC0
FFF00FC0
FFF00FC0
FFF01FC0
1F801FC0
1F801F80
1F803F80
1F80FF80
1F87FF00
1FFFFE00
1FFFFE00
1FFFFC00
1FFFF800
1FFFE000
0FFF0000
ENDCHAR
STARTCHAR Ntilde
ENCODING 209
SWIDTH 720 0
DWIDTH 26 0
BBX 23 35 1 0
BITMAP
00F0C0
03FDE0
07FFE0
07FFE0
07FFC0
039F80
000000
000000
000000
7C003E
7E007E
FF007E
FF807E
FF807E
FFC07E
FFE07E
FFF07E
FFF07E
FFF87E
FFFC7E
FFFE7E
FEFE7E
FE7F7E
FE7FFE
FE3FFE
FE1FFE
FE0FFE
FE0FFE
FE07FE
FE03FE
FE01FE
FE01FE
FE00FE
7E007E
7C003E
ENDCHAR
STARTCHAR Ograve
ENCODING 210
SWIDTH 775 0
DWIDTH 28 0
BBX 26 35 1 0
BITMAP
00800000
00F80000
01FF0000
01FF8000
01FF8000
00FF8000
001F8000
00030000
001E0000
00FFC000
03FFF000
0FFFF800
1FFFFC00
1FFFFE00
3FFFFF00
7FC0FF80
7F007F80
7F003F80
FE001FC0
FE001FC0
FC000FC0
FC000FC0
FC000FC0
FC001FC0
FE001FC0
FE001FC0
7F003F80
7F807F80
7FC0FF00
3FFFFF00
1FFFFE00
0FFFFC00
07FFF800
03FFF000
00FFC000
ENDCHAR
STARTCHAR Oacute
ENCODING 211
SWIDTH 775 0
DWIDTH 28 0
BBX 26 35 1 0
BITMAP
0001C000
000FE000
007FE000
00FFE000
007FE000
007F8000
00780000
00000000
001E0000
00FFC000
03FFF000
0FFFF800
1FFFFC00
1FFFFE00
3FFFFF00
7FC0FF80
7F007F80
7F003F80
FE001FC0
FE001FC0
FC000FC0
FC000FC0
FC000FC0
FC001FC0
FE001FC0
FE001FC0
7F003F80
7F807F80
7FC0FF00
3FFFFF00
1FFFFE00
0FFFFC00
07FFF800
03FFF000
00FFC000
ENDCHAR
STARTCHAR Ocircumflex
ENCODING 212
SWIDTH 775 0
DWIDTH 28 0
BBX 26 35 1 0
BITMAP
001E0000
00FFC000
03FFF000
03FFF000
03FFF000
01F3E000
00C0C000
00000000
001E0000
00FFC000
03FFF000
0FFFF800
1FFFFC00
1FFFFE00
3FFFFF00
7FC0FF80
7F007F80
7F003F80
FE001FC0
FE001FC0
FC000FC0
FC000FC0
FC000FC0
FC001FC0
FE001FC0
FE001FC0
7F003F80
7F807F80
7FC0FF00
3FFFFF00
1FFFFE00
0FFFFC00
07FFF800
03FFF000
00FFC000
ENDCHAR
STARTCHAR Otilde
ENCODING 213
SWIDTH 775 0
DWIDTH 28 0
BBX 26 35 1 0
BITMAP
007C7000
00FEF800
01FFF800
01FFF000
01FFF000
01C7E000
00000000
00000000
001E0000
00FFC000
03FFF000
0FFFF800
1FFFFC00
1FFFFE00
3FFFFF00
7FC0FF80
7F007F80
7F003F80
FE001FC0
FE001FC0
FC000FC0
FC000FC0
FC000FC0
FC001FC0
FE001FC0
FE001FC0
7F003F80
7F807F80
7FC0FF00
3FFFFF00
1FFFFE00
0FFFFC00
07FFF800
03FFF000
00FFC000
ENDCHAR
STARTCHAR Odieresis
ENCODING 214
SWIDTH 775 0
DWIDTH 28 0
BBX 26 35 1 0
BITMAP
03C1F000
07E1F800
07E3F800
07E3F800
07E1F800
07E1F000
00000000
00000000
001E0000
00FFC000
03FFF000
0FFFF800
1FFFFC00
1FFFFE00
3FFFFF00
7FC0FF80
7F007F80
7F003F80
FE001FC0
FE001FC0
FC000FC0
FC000FC0
FC000FC0
FC001FC0
FE001FC0
FE001FC0
7F003F80
7F807F80
7FC0FF00
3FFFFF00
1FFFFE00
0FFFFC00
07FFF800
03FFF000
00FFC000
ENDCHAR
STARTCHAR multiply
ENCODING 215
SWIDTH 521 0
DWIDTH 19 0
BBX 17 17 1 1
BITMAP
300E00
781F00
FC3F80
FE7F80
FFFF00
7FFE00
3FFC00
1FF800
0FF000
1FF800
3FFC00
7FFE00
FFFF00
FE7F80
FC3F80
781F00
300600
ENDCHAR
STARTCHAR Oslash
ENCODING 216
SWIDTH 775 0
DWIDTH 28 0
BBX 26 30 1 -2
BITMAP
00007000
001CFC00
00FFFC00
03FFFC00
0FFFFC00
1FFFFC00
1FFFFE00
3FFFFF00
7FC7FF80
7F07FF80
7F0FFF80
FE0FDFC0
FE1FDFC0
FC1F9FC0
FC3F8FC0
FC3F0FC0
FC7F1FC0
FE7E1FC0
FEFE1FC0
7FFC3F80
7FFC7F80
3FF8FF00
3FFFFF00
1FFFFE00
0FFFFC00
07FFF800
0FFFF000
0FFFC000
07C00000
03800000
ENDCHAR
STARTCHAR Ugrave
ENCODING 217
SWIDTH 726 0
DWIDTH 26 0
BBX 24 35 1 0
BITMAP
020000
07E000
07FC00
07FE00
07FE00
03FE00
007E00
000C00
000000
7C003E
FE007F
FE007F
FE007F
FE007F
FE007F
FE007F
FE007F
FE007F
FE007F
FE007F
FE007F
FE007F
FE007F
FE007F
7E007F
7E007E
7F00FE
7F00FE
3FC3FC
3FFFFC
1FFFF8
0FFFF8
0FFFF0
03FFC0
01FF80
ENDCHAR
STARTCHAR Uacute
ENCODING 218
SWIDTH 726 0
DWIDTH 26 0
BBX 24 35 1 0
BITMAP
0001C0
000FE0
007FE0
00FFE0
007FE0
007F80
007800
000000
000000
7C003E
FE007F
FE007F
FE007F
FE007F
FE007F
FE007F
FE007F
FE007F
FE007F
FE007F
FE007F
FE007F
FE007F
FE007F
7E007F
7E007E
7F00FE
7F00FE
3FC3FC
3FFFFC
1FFFF8
0FFFF8
0FFFF0
03FFC0
01FF80
ENDCHAR
STARTCHAR Ucircumflex
ENCODING 219
SWIDTH 726 0
DWIDTH 26 0
BBX 24 35 1 0
BITMAP
001E00
01FFC0
03FFE0
07FFF0
03FFF0
03F3E0
0180C0
000000
000000
7C003E
FE007F
FE007F
FE007F
FE007F
FE007F
FE007F
FE007F
FE007F
FE007F
FE007F
FE007F
FE007F
FE007F
FE007F
7E007F
7E007E
7F00FE
7F00FE
3FC3FC
3FFFFC
1FFFF8
0FFFF8
0FFFF0
03FFC0
01FF80
ENDCHAR
STARTCHAR Udieresis
ENCODING 220
SWIDTH 726 0
DWIDTH 26 0
BBX 24 35 1 0
BITMAP
07C3E0
0FC3F0
0FC3F0
0FC3F0
0FC3F0
0FC3F0
000000
000000
000000
7C003E
FE007F
FE007F
FE007F
FE007F
FE007F
FE007F
FE007F
FE007F
FE007F
FE007F
FE007F
FE007F
FE007F
FE007F
7E007F
7E007E
7F00FE
7F00FE
3FC3FC
3FFFFC
1FFFF8
0FFFF8
0FFFF0
03FFC0
01FF80
ENDCHAR
STARTCHAR Yacute
ENCODING 221
SWIDTH 686 0
DWIDTH 25 0
BBX 23 35 1 0
BITMAP
000700
003F80
01FF80
01FF80
01FF80
01FE00
00F000
000000
300030
78007C
FC007E
FE00FE
FE01FE
FF01FC
7F83FC
3F87F8
3FC7F0
1FCFF0
0FEFE0
0FFFC0
07FFC0
03FF80
03FF00
01FF00
00FE00
00FE00
00FE00
00FE00
00FE00
00FE00
00FE00
00FE00
00FE00
00FC00
007C00
ENDCHAR
STARTCHAR Thorn
ENCODING 222
SWIDTH 634 0
DWIDTH 23 0
BBX 21 26 1 0
BITMAP
7C0000
FE0000
FE0000
FFF800
FFFF00
FFFF80
FFFFE0
FFFFE0
FFFFF0
FFFFF0
FE03F8
FE03F8
FE03F8
FE03F8
FE03F8
FE07F8
FFFFF0
FFFFF0
FFFFE0
FFFFC0
FFFF80
FFFE00
FE0000
FE0000
7E0000
7C0000
ENDCHAR
STARTCHAR germandbls
ENCODING 223
SWIDTH 633 0
DWIDTH 23 0
BBX 21 28 1 -1
BITMAP
07FC00
1FFF00
3FFF80
7FFFC0
7FFFC0
7F1FC0
FE0FC0
FE1F80
FE3F80
FE3F00
FE7E00
FE7E00
FE7E00
FE7F00
FE3F80
FE3FE0
FE1FF0
FE07F0
FE03F8
FE01F8
FE01F8
FE7BF8
FE7FF8
FE7FF0
FEFFF0
FE7FE0
7E3FC0
7C0000
ENDCHAR
STARTCHAR agrave
ENCODING 224
SWIDTH 596 0
DWIDTH 21 0
BBX 19 28 1 0
BITMAP
030000
07F000
07FE00
07FF00
07FE00
01FE00
003E00
000400
000000
03E3C0
0FF7E0
1FFFE0
3FFFE0
7FFFE0
7FFFE0
FFBFE0
FE0FE0
FC0FE0
FC0FE0
FC0FE0
FE0FE0
FFBFE0
7FFFE0
7FFFE0
3FFFE0
1FFFE0
0FF7E0
03E3C0
ENDCHAR
STARTCHAR aacute
ENCODING 225
SWIDTH 596 0
DWIDTH 21 0
BBX 19 28 1 0
BITMAP
000600
007E00
03FF00
07FF00
07FF00
03FC00
03E000
010000
000000
03E3C0
0FF7E0
1FFFE0
3FFFE0
7FFFE0
7FFFE0
FFBFE0
FE0FE0
FC0FE0
FC0FE0
FC0FE0
FE0FE0
FFBFE0
7FFFE0
7FFFE0
3FFFE0
1FFFE0
0FF7E0
03E3C0
ENDCHAR
STARTCHAR acircumflex
ENCODING 226
SWIDTH 596 0
DWIDTH 21 0
BBX 19 28 1 0
BITMAP
007000
03FE00
0FFF80
0FFFC0
0FFFC0
0FDF80
070380
000000
000000
03E3C0
0FF7E0
1FFFE0
3FFFE0
7FFFE0
7FFFE0
FFBFE0
FE0FE0
FC0FE0
FC0FE0
FC0FE0
FE0FE0
FFBFE0
7FFFE0
7FFFE0
3FFFE0
1FFFE0
0FF7E0
03E3C0
ENDCHAR
STARTCHAR atilde
ENCODING 227
SWIDTH 596 0
DWIDTH 21 0
BBX 19 28 1 0
BITMAP
01C300
07F3C0
0FFFC0
0FFFC0
1FFF80
0F3F00
060C00
000000
000000
03E3C0
0FF7E0
1FFFE0
3FFFE0
7FFFE0
7FFFE0
FFBFE0
FE0FE0
FC0FE0
FC0FE0
FC0FE0
FE0FE0
FFBFE0
7FFFE0
7FFFE0
3FFFE0
1FFFE0
0FF7E0
03E3C0
ENDCHAR
STARTCHAR adieresis
ENCODING 228
SWIDTH 596 0
DWIDTH 21 0
BBX 19 28 1 0
BITMAP
0F07C0
1F87E0
1F8FE0
1F8FE0
1F8FE0
1F87C0
0E0100
000000
000000
03E3C0
0FF7E0
1FFFE0
3FFFE0
7FFFE0
7FFFE0
FFBFE0
FE0FE0
FC0FE0
FC0FE0
FC0FE0
FE0FE0
FFBFE0
7FFFE0
7FFFE0
3FFFE0
1FFFE0
0FF7E0
03E3C0
ENDCHAR
STARTCHAR aring
ENCODING 229
SWIDTH 596 0
DWIDTH 21 0
BBX 19 27 1 0
BITMAP
007800
00FC00
01CC00
018400
018C00
00FC00
007800
000000
03E3C0
0FF7E0
1FFFE0
3FFFE0
7FFFE0
7FFFE0
FFBFE0
FE0FE0
FC0FE0
FC0FE0
FC0FE0
FE0FE0
FFBFE0
7FFFE0
7FFFE0
3FFFE0
1FFFE0
0FF7E0
03E3C0
ENDCHAR
STARTCHAR ae
ENCODING 230
SWIDTH 910 0
DWIDTH 33 0
BBX 31 19 1 0
BITMAP
07F83FC0
1FFCFFF0
7FFFFFF8
7FFFFFFC
FFFFFFFC
7FFFF9FE
7E1FF07E
381FE07E
000FFFFE
1FEFFFFC
7FFFFFFC
FFFFE000
FC1FE000
F80FF878
FC1FFFF8
FFFFFFFC
FFFDFFFC
7FF8FFF8
3FF03FE0
ENDCHAR
STARTCHAR ccedilla
ENCODING 231
SWIDTH 524 0
DWIDTH 19 0
BBX 17 26 1 -7
BITMAP
03FC00
0FFF00
1FFF80
3FFF80
7FFF80
7FFF00
FF1F00
FE0400
FE0000
FC0000
FE0000
FE0400
FF9E00
7FFF00
7FFF80
3FFF80
1FFF80
0FFE00
03FC00
03F000
03F800
013800
01B800
03F800
03F000
01E000
ENDCHAR
STARTCHAR egrave
ENCODING 232
SWIDTH 573 0
DWIDTH 21 0
BBX 19 28 1 0
BITMAP
070000
07E000
0FFC00
0FFE00
0FFE00
03FC00
007C00
000800
000000
03FC00
0FFF00
1FFF80
3FFFC0
7FFFC0
7F9FE0
FF0FE0
FE0FE0
FFFFE0
FFFFC0
FFFFC0
FFFF00
FE0000
7F0380
7FFF80
3FFFC0
3FFFC0
0FFF80
07FF00
ENDCHAR
STARTCHAR eacute
ENCODING 233
SWIDTH 573 0
DWIDTH 21 0
BBX 19 28 1 0
BITMAP
000C00
007E00
03FE00
07FF00
07FF00
07FC00
03E000
010000
000000
03FC00
0FFF00
1FFF80
3FFFC0
7FFFC0
7F9FE0
FF0FE0
FE0FE0
FFFFE0
FFFFC0
FFFFC0
FFFF00
FE0000
7F0380
7FFF80
3FFFC0
3FFFC0
0FFF80
07FF00
ENDCHAR
STARTCHAR ecircumflex
ENCODING 234
SWIDTH 573 0
DWIDTH 21 0
BBX 19 28 1 0
BITMAP
00E000
07FC00
1FFF00
3FFF80
1FFF80
1FBF00
0E0600
000000
000000
03FC00
0FFF00
1FFF80
3FFFC0
7FFFC0
7F9FE0
FF0FE0
FE0FE0
FFFFE0
FFFFC0
FFFFC0
FFFF00
FE0000
7F0380
7FFF80
3FFFC0
3FFFC0
0FFF80
07FF00
ENDCHAR
STARTCHAR edieresis
ENCODING 235
SWIDTH 573 0
DWIDTH 21 0
BBX 19 28 1 0
BITMAP
3E0F00
3F1F80
7F1F80
7F1F80
7F1F80
3E1F80
080200
000000
000000
03FC00
0FFF00
1FFF80
3FFFC0
7FFFC0
7F9FE0
FF0FE0
FE0FE0
FFFFE0
FFFFC0
FFFFC0
FFFF00
FE0000
7F0380
7FFF80
3FFFC0
3FFFC0
0FFF80
07FF00
ENDCHAR
STARTCHAR igrave
ENCODING 236
SWIDTH 255 0
DWIDTH 9 0
BBX 11 28 -2 0
BITMAP
3000
7E00
7FC0
FFE0
FFE0
3FE0
07C0
0080
0000
0F80
0FC0
1FC0
1FC0
1FC0
1FC0
1FC0
1FC0
1FC0
1FC0
1FC0
1FC0
1FC0
1FC0
1FC0
1FC0
1FC0
0FC0
0F80
ENDCHAR
STARTCHAR iacute
ENCODING 237
SWIDTH 255 0
DWIDTH 9 0
BBX 10 28 1 0
BITMAP
0180
1FC0
FFC0
FFC0
FFC0
FF00
F800
4000
0000
7C00
7E00
FE00
FE00
FE00
FE00
FE00
FE00
FE00
FE00
FE00
FE00
FE00
FE00
FE00
FE00
FE00
7E00
7C00
ENDCHAR
STARTCHAR icircumflex
ENCODING 238
SWIDTH 255 0
DWIDTH 9 0
BBX 15 28 -3 0
BITMAP
0380
1FF0
7FFC
FFFE
7FFE
7EFC
3838
0000
0000
07C0
07E0
0FE0
0FE0
0FE0
0FE0
0FE0
0FE0
0FE0
0FE0
0FE0
0FE0
0FE0
0FE0
0FE0
0FE0
0FE0
07E0
07C0
ENDCHAR
STARTCHAR idieresis
ENCODING 239
SWIDTH 255 0
DWIDTH 9 0
BBX 16 28 -3 0
BITMAP
783E
FC7E
FC7F
FC7F
FC7F
FC3E
6008
0000
0000
07C0
07E0
0FE0
0FE0
0FE0
0FE0
0FE0
0FE0
0FE0
0FE0
0FE0
0FE0
0FE0
0FE0
0FE0
0FE0
0FE0
07E0
07C0
ENDCHAR
STARTCHAR eth
ENCODING 240
SWIDTH 585 0
DWIDTH 21 0
BBX 19 29 1 0
BITMAP
003800
033800
07F800
07F000
07F800
07FC00
03FE00
07FF00
071F80
030F80
0087C0
07FFC0
0FFFC0
3FFFE0
3FFFE0
7FFFE0
7FBFE0
FE0FE0
FC07E0
FC07E0
FC07E0
FE0FE0
FF1FE0
7FFFC0
7FFFC0
3FFF80
1FFF00
0FFE00
03F800
ENDCHAR
STARTCHAR ntilde
ENCODING 241
SWIDTH 606 0
DWIDTH 22 0
BBX 19 28 1 0
BITMAP
038300
07E780
0FFF80
1FFF80
1FFF00
1E7E00
041800
000000
000000
7C7C00
7FFF00
FFFF80
FFFFC0
FFFFC0
FFFFE0
FF9FE0
FE0FE0
FE07E0
FE07E0
FE07E0
FE07E0
FE07E0
FE07E0
FE07E0
FE07E0
FE07E0
7E07E0
7C03C0
ENDCHAR
STARTCHAR ograve
ENCODING 242
SWIDTH 600 0
DWIDTH 22 0
BBX 20 28 1 0
BITMAP
030000
07E000
07FC00
0FFE00
07FE00
03FE00
007C00
000800
000000
03FC00
0FFF00
1FFF80
3FFFC0
7FFFC0
7FFFE0
FF0FE0
FE07F0
FC07F0
FC07F0
FC07F0
FE07F0
FF0FE0
7FFFE0
7FFFC0
3FFFC0
1FFF80
0FFF00
03FC00
ENDCHAR
STARTCHAR oacute
ENCODING 243
SWIDTH 600 0
DWIDTH 22 0
BBX 20 28 1 0
BITMAP
000E00
007E00
03FF00
07FF00
07FF00
03FC00
03E000
010000
000000
03FC00
0FFF00
1FFF80
3FFFC0
7FFFC0
7FFFE0
FF0FE0
FE07F0
FC07F0
FC07F0
FC07F0
FE07F0
FF0FE0
7FFFE0
7FFFC0
3FFFC0
1FFF80
0FFF00
03FC00
ENDCHAR
STARTCHAR ocircumflex
ENCODING 244
SWIDTH 600 0
DWIDTH 22 0
BBX 20 28 1 0
BITMAP
006000
07FC00
1FFF80
1FFF80
1FFF80
1F9F80
0E0700
000000
000000
03FC00
0FFF00
1FFF80
3FFFC0
7FFFC0
7FFFE0
FF0FE0
FE07F0
FC07F0
FC07F0
FC07F0
FE07F0
FF0FE0
7FFFE0
7FFFC0
3FFFC0
1FFF80
0FFF00
03FC00
ENDCHAR
STARTCHAR otilde
ENCODING 245
SWIDTH 600 0
DWIDTH 22 0
BBX 20 28 1 0
BITMAP
038200
0FE780
1FFF80
1FFF80
1FFF00
1E7E00
041800
000000
000000
03FC00
0FFF00
1FFF80
3FFFC0
7FFFC0
7FFFE0
FF0FE0
FE07F0
FC07F0
FC07F0
FC07F0
FE07F0
FF0FE0
7FFFE0
7FFFC0
3FFFC0
1FFF80
0FFF00
03FC00
ENDCHAR
STARTCHAR odieresis
ENCODING 246
SWIDTH 600 0
DWIDTH 22 0
BBX 20 28 1 0
BITMAP
1E0F80
3F1F80
3F1FC0
3F1FC0
3F1FC0
3F0F80
180200
000000
000000
03FC00
0FFF00
1FFF80
3FFFC0
7FFFC0
7FFFE0
FF0FE0
FE07F0
FC07F0
FC07F0
FC07F0
FE07F0
FF0FE0
7FFFE0
7FFFC0
3FFFC0
1FFF80
0FFF00
03FC00
ENDCHAR
STARTCHAR divide
ENCODING 247
SWIDTH 503 0
DWIDTH 18 0
BBX 16 20 1 0
BITMAP
0180
07E0
07E0
07E0
07E0
03C0
0000
0000
FFFF
FFFF
FFFF
FFFF
7FFE
0000
03C0
07E0
07E0
07E0
07E0
03C0
ENDCHAR
STARTCHAR oslash
ENCODING 248
SWIDTH 600 0
DWIDTH 22 0
BBX 20 31 1 -6
BITMAP
000300
0007C0
0007E0
000FE0
000FC0
001FC0
03FF80
0FFF80
1FFF80
3FFFC0
7FFFC0
7FFFE0
FF0FE0
FE07F0
FC07F0
FC07F0
FC07F0
FE07F0
FF0FE0
7FFFE0
7FFFC0
3FFFC0
1FFF80
1FFF00
3FFC00
3F0000
7F0000
7E0000
7E0000
3C0000
080000
ENDCHAR
STARTCHAR ugrave
ENCODING 249
SWIDTH 606 0
DWIDTH 22 0
BBX 19 28 1 0
BITMAP
030000
07E000
07FC00
0FFE00
07FE00
03FE00
007C00
000800
000000
7C03E0
7E07E0
FE07E0
FE07E0
FE07E0
FE07E0
FE07E0
FE07E0
FE07E0
FE07E0
FE07E0
7E0FE0
7F9FE0
7FFFE0
3FFFE0
3FFFE0
1FFFE0
0FF7E0
03E3C0
ENDCHAR
STARTCHAR uacute
ENCODING 250
SWIDTH 606 0
DWIDTH 22 0
BBX 19 28 1 0
BITMAP
000600
003F00
01FF00
03FF80
03FF00
03FE00
01E000
010000
000000
7C03E0
7E07E0
FE07E0
FE07E0
FE07E0
FE07E0
FE07E0
FE07E0
FE07E0
FE07E0
FE07E0
7E0FE0
7F9FE0
7FFFE0
3FFFE0
3FFFE0
1FFFE0
0FF7E0
03E3C0
ENDCHAR
STARTCHAR ucircumflex
ENCODING 251
SWIDTH 606 0
DWIDTH 22 0
BBX 19 28 1 0
BITMAP
007000
03FE00
1FFF80
1FFF80
1FFF80
1FDF80
0E0700
000000
000000
7C03E0
7E07E0
FE07E0
FE07E0
FE07E0
FE07E0
FE07E0
FE07E0
FE07E0
FE07E0
FE07E0
7E0FE0
7F9FE0
7FFFE0
3FFFE0
3FFFE0
1FFFE0
0FF7E0
03E3C0
ENDCHAR
STARTCHAR udieresis
ENCODING 252
SWIDTH 606 0
DWIDTH 22 0
BBX 19 28 1 0
BITMAP
1E0780
3F0FC0
3F1FC0
3F1FC0
3F1FC0
3F0FC0
0C0200
000000
000000
7C03E0
7E07E0
FE07E0
FE07E0
FE07E0
FE07E0
FE07E0
FE07E0
FE07E0
FE07E0
FE07E0
7E0FE0
7F9FE0
7FFFE0
3FFFE0
3FFFE0
1FFFE0
0FF7E0
03E3C0
ENDCHAR
STARTCHAR yacute
ENCODING 253
SWIDTH 604 0
DWIDTH 22 0
BBX 20 37 1 -9
BITMAP
000600
003F00
01FF00
03FF00
03FF00
03FC00
01E000
010000
000000
7801E0
FC03F0
FC03F0
FE07F0
FF07F0
7F0FE0
3F8FE0
3F9FC0
1FDFC0
1FFF80
0FFF80
0FFF00
07FF00
03FF00
03FE00
01FE00
01FC00
01FC00
03F800
03F800
03F000
07F000
07F000
0FE000
0FE000
0FC000
07C000
010000
ENDCHAR
STARTCHAR thorn
ENCODING 254
SWIDTH 580 0
DWIDTH 21 0
BBX 19 36 1 -8
BITMAP
7C0000
FC0000
FC0000
FC0000
FC0000
FC0000
FC0000
FC0000
FC0000
FCF800
FDFE00
FFFF00
FFFF80
FFFFC0
FFFFC0
FFBFC0
FE0FE0
FE0FE0
FC07E0
FE0FE0
FE0FE0
FFBFE0
FFFFC0
FFFFC0
FFFF80
FFFF00
FFFE00
FCF800
FC0000
FC0000
FC0000
FC0000
FC0000
FC0000
7C0000
7C0000
ENDCHAR
STARTCHAR ydieresis
ENCODING 255
SWIDTH 604 0
DWIDTH 22 0
BBX 20 37 1 -9
BITMAP
1E0780
3F0FC0
3F8FC0
3F8FC0
3F8FC0
3F0FC0
060300
000000
000000
7801E0
FC03F0
FC03F0
FE07F0
FF07F0
7F0FE0
3F8FE0
3F9FC0
1FDFC0
1FFF80
0FFF80
0FFF00
07FF00
03FF00
03FE00
01FE00
01FC00
01FC00
03F800
03F800
03F000
07F000
07F000
0FE000
0FE000
0FC000
07C000
010000
ENDCHAR
STARTCHAR dotlessi
ENCODING 305
SWIDTH 255 0
DWIDTH 9 0
BBX 7 19 1 0
BITMAP
7C
7E
FE
FE
FE
FE
FE
FE
FE
FE
FE
FE
FE
FE
FE
FE
FE
7E
7C
ENDCHAR
STARTCHAR Lslash
ENCODING 321
SWIDTH 687 0
DWIDTH 25 0
BBX 23 26 1 0
BITMAP
0FC000
0FC000
0FC000
0FC000
0FC000
0FC000
0FC000
0FC000
0FCE00
0FFE00
0FFF00
7FFF00
FFFE00
FFE000
FFC000
7FC000
0FC000
0FC000
0FC000
0FC000
0FC000
0FFFFE
0FFFFE
0FFFFE
0FFFFE
07FFFC
ENDCHAR
STARTCHAR lslash
ENCODING 322
SWIDTH 468 0
DWIDTH 17 0
BBX 15 28 1 0
BITMAP
0780
0FC0
0FC0
0FC0
0FC0
0FC0
0FC0
0FC0
0FC0
0FC0
0FCC
0FFE
0FFE
7FFE
FFFC
FFE0
FFC0
FFC0
0FC0
0FC0
0FC0
0FC0
0FF8
0FF8
0FFC
0FFC
07F8
01F8
ENDCHAR
STARTCHAR OE
ENCODING 338
SWIDTH 1092 0
DWIDTH 39 0
BBX 37 26 1 0
BITMAP
00FFFFFFF8
03FFFFFFF8
07FFFFFFF8
0FFFFFFFF8
1FFFFFFFF8
3FFFFFFFF8
7FC07E0000
7F807E0000
7F007E0000
FE007E0000
FE007FFF80
FC007FFF80
FC007FFF80
FC007FFF80
FC007FFF80
FE007FFF80
FE007E0000
7F007E0000
7F807E0000
3FE07E0000
3FFFFFFFF8
1FFFFFFFF8
0FFFFFFFF8
07FFFFFFF8
01FFFFFFF8
007FFFFFF8
ENDCHAR
STARTCHAR oe
ENCODING 339
SWIDTH 944 0
DWIDTH 34 0
BBX 32 19 1 0
BITMAP
03FC0FE0
0FFF3FF8
1FFFFFFC
3FFFFFFE
7FFFFFFE
7FFFFE7F
FF0FF83F
FE07F03F
FC07FFFF
FC07FFFF
FC07FFFE
FE07F000
FF0FF800
7FFFFC3C
7FFFFFFE
3FFFFFFE
1FFFFFFE
0FFF7FFE
03FC1FF8
ENDCHAR
STARTCHAR Scaron
ENCODING 352
SWIDTH 583 0
DWIDTH 21 0
BBX 19 35 1 0
BITMAP
0E0E00
1FBF00
3FFF80
3FFF80
1FFF00
07FC00
00E000
000000
03F000
0FFE00
1FFF00
3FFF80
7FFFC0
7FFF80
7F1F80
FE0F00
FE0000
FE0000
7F8000
7FFC00
3FFF00
3FFF80
0FFFC0
03FFE0
007FE0
000FE0
3807E0
7C07E0
FE0FE0
FFFFE0
FFFFC0
7FFFC0
3FFF80
1FFF00
07FC00
ENDCHAR
STARTCHAR scaron
ENCODING 353
SWIDTH 489 0
DWIDTH 18 0
BBX 16 28 1 0
BITMAP
3018
7EFC
FFFC
FFFE
7FFC
1FF0
0380
0000
0000
0FF8
3FFE
7FFE
7FFE
7FFC
7C08
7E00
7FF0
7FFC
3FFE
1FFE
0FFF
20FF
783F
FFFF
FFFE
FFFE
7FFC
1FF0
ENDCHAR
STARTCHAR Ydieresis
ENCODING 376
SWIDTH 686 0
DWIDTH 25 0
BBX 23 35 1 0
BITMAP
0F83E0
1FC7E0
1FC7E0
1FC7E0
1FC7E0
0F87E0
000000
000000
300030
78007C
FC007E
FE00FE
FE01FE
FF01FC
7F83FC
3F87F8
3FC7F0
1FCFF0
0FEFE0
0FFFC0
07FFC0
03FF80
03FF00
01FF00
00FE00
00FE00
00FE00
00FE00
00FE00
00FE00
00FE00
00FE00
00FE00
00FC00
007C00
ENDCHAR
STARTCHAR Zcaron
ENCODING 381
SWIDTH 643 0
DWIDTH 23 0
BBX 21 35 1 0
BITMAP
070700
0FDF80
1FFFC0
1FFFC0
0FFF80
03FE00
007000
000000
000000
FFFFF0
FFFFF0
FFFFF8
FFFFF8
FFFFF0
7FFFF0
001FE0
003FC0
003F80
007F80
00FF00
01FE00
01FC00
03FC00
07F800
0FF000
0FF000
1FE000
3FC000
3F8000
7FFFF8
FFFFF8
FFFFF8
FFFFF8
FFFFF8
7FFFF0
ENDCHAR
STARTCHAR zcaron
ENCODING 382
SWIDTH 586 0
DWIDTH 21 0
BBX 19 28 1 0
BITMAP
0E0600
1F9F00
1FFF80
1FFF80
1FFF80
07FE00
00F000
000000
000000
3FFF80
7FFFC0
7FFFE0
7FFFE0
7FFFC0
7FFFC0
007F80
00FF00
03FE00
07F800
0FF000
1FE000
3FC000
7FFFE0
FFFFE0
FFFFE0
FFFFE0
FFFFE0
7FFFC0
ENDCHAR
STARTCHAR florin
ENCODING 402
SWIDTH 529 0
DWIDTH 19 0
BBX 19 35 0 -8
BITMAP
0003C0
001FC0
003FE0
007FC0
00FFC0
00FFC0
01FF00
01FC00
01F800
0FFFC0
1FFFC0
1FFFE0
1FFFC0
1FFFC0
1FFFC0
03F800
03F800
03F000
03F000
03F000
03F000
03F000
03F000
03F000
07F000
07F000
07E000
07E000
07E000
3FE000
7FE000
FFC000
FF8000
FF0000
7E0000
ENDCHAR
STARTCHAR circumflex
ENCODING 710
SWIDTH 603 0
DWIDTH 22 0
BBX 14 7 4 21
BITMAP
0700
3FE0
FFFC
FFFC
FFFC
FDF8
7038
ENDCHAR
STARTCHAR caron
ENCODING 711
SWIDTH 600 0
DWIDTH 22 0
BBX 14 7 4 21
BITMAP
7030
FCF8
FFFC
FFFC
FFFC
3FF0
0780
ENDCHAR
STARTCHAR dotaccent
ENCODING 729
SWIDTH 285 0
DWIDTH 10 0
BBX 6 7 2 25
BITMAP
30
FC
FC
FC
FC
FC
78
ENDCHAR
STARTCHAR ring
ENCODING 730
SWIDTH 378 0
DWIDTH 14 0
BBX 9 9 2 24
BITMAP
1E00
7F00
7380
E180
E180
E180
7380
7F00
3E00
ENDCHAR
STARTCHAR ogonek
ENCODING 731
SWIDTH 570 0
DWIDTH 21 0
BBX 7 8 6 -7
BITMAP
3C
7E
7E
F4
F4
7E
7E
3C
ENDCHAR
STARTCHAR tilde
ENCODING 732
SWIDTH 584 0
DWIDTH 21 0
BBX 14 7 3 21
BITMAP
1C18
3F3C
7FFC
FFFC
FFF8
F3F0
20C0
ENDCHAR
STARTCHAR endash
ENCODING 8211
SWIDTH 561 0
DWIDTH 20 0
BBX 19 6 1 7
BITMAP
7FFFC0
FFFFC0
FFFFE0
FFFFE0
FFFFE0
FFFFC0
ENDCHAR
STARTCHAR emdash
ENCODING 8212
SWIDTH 693 0
DWIDTH 25 0
BBX 23 6 1 7
BITMAP
7FFFFC
FFFFFE
FFFFFE
FFFFFE
FFFFFE
FFFFFE
ENDCHAR
STARTCHAR quoteleft
ENCODING 8216
SWIDTH 237 0
DWIDTH 9 0
BBX 7 12 1 14
BITMAP
1E
3E
7C
78
F0
F8
FC
FE
FE
FE
FC
7C
ENDCHAR
STARTCHAR quoteright
ENCODING 8217
SWIDTH 237 0
DWIDTH 9 0
BBX 7 12 1 14
BITMAP
FC
FE
FE
FE
FE
FC
3C
3C
38
F8
F0
E0
ENDCHAR
STARTCHAR quotesinglbase
ENCODING 8218
SWIDTH 237 0
DWIDTH 9 0
BBX 7 13 1 -6
BITMAP
78
FC
FE
FE
FE
FE
7C
3C
3C
78
F8
F0
C0
ENDCHAR
STARTCHAR quotedblleft
ENCODING 8220
SWIDTH 482 0
DWIDTH 17 0
BBX 15 12 1 14
BITMAP
1E0E
3E1E
7C3C
7838
F078
F87C
FC7E
FE7E
FE7E
FE7E
FC7E
7C3E
ENDCHAR
STARTCHAR quotedblright
ENCODING 8221
SWIDTH 482 0
DWIDTH 17 0
BBX 15 12 1 14
BITMAP
FC7E
FE7E
FE7E
FE7E
FE7E
FC7E
3C1E
3C1E
381C
F87C
F078
E070
ENDCHAR
STARTCHAR quotedblbase
ENCODING 8222
SWIDTH 482 0
DWIDTH 17 0
BBX 15 13 1 -6
BITMAP
783C
FC7E
FE7E
FE7E
FE7E
FE7E
7C3E
3C1E
3C1E
783C
F878
F078
C060
ENDCHAR
STARTCHAR dagger
ENCODING 8224
SWIDTH 527 0
DWIDTH 19 0
BBX 17 34 1 -7
BITMAP
03E000
03E000
07F000
07F000
07F000
07F000
07F000
07F000
07F000
FFFF80
FFFF80
FFFF80
FFFF80
FFFF80
07F000
07F000
07F000
07F000
07F000
07F000
07F000
07F000
07F000
07F000
07F000
07F000
07F000
07F000
07F000
07F000
07F000
07F000
03E000
01E000
ENDCHAR
STARTCHAR daggerdbl
ENCODING 8225
SWIDTH 527 0
DWIDTH 19 0
BBX 17 34 1 -7
BITMAP
03E000
03E000
07F000
07F000
07F000
07F000
07F000
07F000
07F000
FFFF80
FFFF80
FFFF80
FFFF80
FFFF80
07F000
07F000
07F000
07F000
07F000
07F000
FFFF80
FFFF80
FFFF80
FFFF80
FFFF80
07F000
07F000
07F000
07F000
07F000
07F000
07F000
03E000
01E000
ENDCHAR
STARTCHAR bullet
ENCODING 8226
SWIDTH 342 0
DWIDTH 12 0
BBX 10 11 1 6
BITMAP
0C00
7F80
7FC0
FFC0
FFC0
FFC0
FFC0
FFC0
FFC0
7F80
1F00
ENDCHAR
STARTCHAR ellipsis
ENCODING 8230
SWIDTH 911 0
DWIDTH 33 0
BBX 31 7 1 0
BITMAP
78038038
FC0FC0FE
FE0FE0FE
FE0FE0FE
FE0FE0FE
FC0FE0FE
7C07C07C
ENDCHAR
STARTCHAR perthousand
ENCODING 8240
SWIDTH 1223 0
DWIDTH 44 0
BBX 42 29 1 -1
BITMAP
00000C000000
02001E000000
1FC01C000000
3FE03C000000
7FF038000000
7FF078000000
78F0F0000000
F078F0000000
F079E0000000
78F9C0000000
7DF3C0000000
7FF380000000
3FF780000000
3FE700000000
0F8F00000000
000E3F80FE00
001E7FC1FF00
001C7FE3FF80
003CFFE3FF80
0038F1F3C780
0078F0F783C0
0070F0F783C0
00F0F0F387C0
00E0F9F3C780
01E0FFE3FF80
03C07FE1FF80
03803FC1FF00
07801F807C00
030000000000
ENDCHAR
STARTCHAR guilsinglleft
ENCODING 8249
SWIDTH 383 0
DWIDTH 14 0
BBX 12 19 1 0
BITMAP
00C0
01E0
03F0
07F0
0FF0
1FE0
3FC0
7F80
FF00
FE00
FF00
FF80
7FC0
3FE0
0FF0
07F0
03F0
01E0
00C0
ENDCHAR
STARTCHAR guilsinglright
ENCODING 8250
SWIDTH 383 0
DWIDTH 14 0
BBX 12 19 1 0
BITMAP
3000
7800
FC00
FE00
FF00
7F80
3FC0
1FE0
0FF0
07F0
0FF0
1FE0
3FC0
7F80
FF00
FE00
FC00
F800
3000
ENDCHAR
STARTCHAR fraction
ENCODING 8260
SWIDTH 433 0
DWIDTH 16 0
BBX 18 29 1 -1
BITMAP
000180
0003C0
000380
000780
000700
000F00
001E00
001C00
003C00
003800
007800
007000
00F000
00E000
01E000
01C000
03C000
038000
078000
070000
0F0000
0E0000
1E0000
3C0000
3C0000
780000
700000
F00000
600000
ENDCHAR
STARTCHAR Euro
ENCODING 8364
SWIDTH 612 0
DWIDTH 22 0
BBX 20 28 1 0
BITMAP
001FE0
00FFF0
03FFF0
07FFF0
07FFF0
0FFFF0
0FFFC0
1FC000
1FC000
FFFF80
FFFFC0
FFFFC0
FFFFC0
3F8000
3F8000
FFFFC0
FFFFC0
FFFFC0
FFFFC0
1F8000
1FC000
0FF000
0FFFF0
07FFF0
07FFF0
03FFF0
00FFF0
003FE0
ENDCHAR
STARTCHAR trademark
ENCODING 8482
SWIDTH 840 0
DWIDTH 30 0
BBX 28 14 1 9
BITMAP
FFF180E0
FFF3C1F0
FFFBE1F0
FFF3F3F0
0F03F7F0
0F03FFF0
0F03FFF0
0F03FFF0
0F03FFF0
0F03FFF0
0F03DDF0
0F03C1F0
0F03C1F0
0F03C1F0
ENDCHAR
STARTCHAR minus
ENCODING 8722
SWIDTH 581 0
DWIDTH 21 0
BBX 19 6 1 7
BITMAP
7FFFC0
FFFFE0
FFFFE0
FFFFE0
FFFFE0
7FFFC0
ENDCHAR
STARTCHAR f_f
ENCODING 64256
SWIDTH 803 0
DWIDTH 29 0
BBX 27 28 1 0
BITMAP
00F80FC0
03FC3FC0
07FC7FC0
0FFC7FC0
1FFCFFC0
1FF8FFC0
1FC0FE00
1F80FC00
1F80FC00
FFFFFFC0
FFFFFFE0
FFFFFFE0
FFFFFFE0
FFFFFFE0
FFFFFFE0
1F80FC00
1F80FC00
1F80FC00
1F80FC00
1F80FC00
1F80FC00
1F80FC00
1F80FC00
1F80FC00
1F80FC00
1F80FC00
1F80FC00
0F00F800
ENDCHAR
STARTCHAR fi
ENCODING 64257
SWIDTH 709 0
DWIDTH 26 0
BBX 23 28 1 0
BITMAP
00F83C
03F87E
07FC7E
0FFC7E
1FFC7E
1FF87E
1FC000
1F8000
1F8000
7FFC3C
FFFC7E
FFFE7E
FFFE7E
FFFE7E
FFFC7E
1F807E
1F807E
1F807E
1F807E
1F807E
1F807E
1F807E
1F807E
1F807E
1F807E
1F807E
1F807E
0F003C
ENDCHAR
STARTCHAR fl
ENCODING 64258
SWIDTH 774 0
DWIDTH 28 0
BBX 26 28 1 0
BITMAP
00F87C00
03F87E00
07FC7E00
0FFC7E00
1FFC7E00
1FF87E00
1FC07E00
1F807E00
1F807E00
7FFC7E00
FFFC7E00
FFFE7E00
FFFE7E00
FFFE7E00
FFFC7E00
1F807E00
1F807E00
1F807E00
1F807E00
1F807E00
1F807E00
1F807E00
1F807FC0
1F807FC0
1F807FC0
1F807FC0
1F803FC0
0F001FC0
ENDCHAR
STARTCHAR f_f_i
ENCODING 64259
SWIDTH 1059 0
DWIDTH 38 0
BBX 36 28 1 0
BITMAP
00F80FC1C0
03FC3FC3E0
07FC7FC7F0
0FFC7FC7F0
1FFCFFC7F0
1FF8FFC3E0
1FC0FE00C0
1F80FC0000
1F80FC0000
FFFFFFC3E0
FFFFFFE3E0
FFFFFFE7F0
FFFFFFE7F0
FFFFFFE7F0
FFFFFFE7F0
1F80FC07F0
1F80FC07F0
1F80FC07F0
1F80FC07F0
1F80FC07F0
1F80FC07F0
1F80FC07F0
1F80FC07F0
1F80FC07F0
1F80FC07F0
1F80FC07F0
1F80FC03F0
0F00F803E0
ENDCHAR
STARTCHAR .notdef
ENCODING -1
SWIDTH 500 0
DWIDTH 18 0
BBX 1 1 0 0
BITMAP
00
ENDCHAR
STARTCHAR .null
ENCODING -1
SWIDTH 0 0
DWIDTH 0 0
BBX 1 1 0 0
BITMAP
00
ENDCHAR
STARTCHAR nonmarkingreturn
ENCODING -1
SWIDTH 333 0
DWIDTH 12 0
BBX 1 1 0 0
BITMAP
00
ENDCHAR
STARTCHAR f_t
ENCODING -1
SWIDTH 814 0
DWIDTH 29 0
BBX 28 28 1 0
BITMAP
00F80000
03FC0000
07FC0000
0FFCFC00
1FFCFC00
1FF8FC00
1FC0FC00
1F80FC00
1F80FC00
FFFFFFE0
FFFFFFF0
FFFFFFF0
FFFFFFF0
FFFFFFF0
FFFFFFE0
1F80FC00
1F80FC00
1F80FC00
1F80FC00
1F80FC00
1F80FC00
1F80FC00
1F80FFC0
1F80FFE0
1F807FE0
1F803FE0
1F801FE0
0F000FC0
ENDCHAR
STARTCHAR t_t
ENCODING -1
SWIDTH 794 0
DWIDTH 29 0
BBX 27 25 1 0
BITMAP
1F80F800
1F81F800
1F81FC00
1F81FC00
1F81FC00
1F81FC00
FFFFFFC0
FFFFFFE0
FFFFFFE0
FFFFFFE0
FFFFFFE0
FFFFFFE0
1F81FC00
1F81FC00
1F81FC00
1F81FC00
1F81FC00
1F81FC00
1F81FC00
1FF9FF80
1FFCFFC0
0FFCFFC0
0FFC7FC0
07F83FC0
01F80F80
ENDCHAR
STARTCHAR l_l
ENCODING -1
SWIDTH 626 0
DWIDTH 23 0
BBX 21 28 1 0
BITMAP
7C1E00
7E3F00
FE3F00
FE3F00
FE3F00
FE3F00
FE3F00
FE3F00
FE3F00
FE3F00
FE3F00
FE3F00
FE3F00
FE3F00
FE3F00
FE3F00
FE3F00
FE3F00
FE3F00
FE3F00
FE3F00
FE3F80
7FBFF0
7F9FF8
7F9FF8
7F8FF8
3F87F8
0F01F0
ENDCHAR
STARTCHAR j_j
ENCODING -1
SWIDTH 521 0
DWIDTH 19 0
BBX 22 36 -5 -8
BITMAP
00E030
01F0FC
03F8FC
03F8FC
03F8FC
01F0FC
00E030
000000
000000
01F078
01F0FC
03F8FC
03F8FC
03F8FC
03F8FC
03F8FC
03F8FC
03F8FC
03F8FC
03F8FC
03F8FC
03F8FC
03F8FC
03F8FC
03F8FC
03F8FC
03F8FC
03F8FC
03F8FC
07F0FC
7FF3FC
FFF7FC
FFE7F8
FFCFF8
FF87F0
7E07E0
ENDCHAR
ENDFONT
